<svg width="44" height="36" viewBox="0 0 44 36" fill="none" xmlns="http://www.w3.org/2000/svg">
<path d="M30.425 6.85497C30.833 6.06597 30.884 5.13697 30.535 4.31397C30.169 3.44797 29.419 2.80296 28.507 2.57296L20.735 0.607967C20.69 0.596967 20.644 0.598961 20.599 0.589961C20.458 0.560961 20.317 0.541962 20.171 0.532962C20.097 0.528962 20.024 0.526965 19.95 0.527965C19.812 0.529965 19.675 0.544966 19.536 0.566966C19.456 0.579966 19.376 0.590966 19.297 0.609966C19.257 0.619966 19.217 0.619962 19.177 0.630962L12.282 2.59597C12.257 2.60297 12.236 2.61697 12.211 2.62397C12.127 2.64997 12.049 2.68697 11.968 2.72097C11.845 2.77197 11.724 2.82496 11.611 2.88996C11.542 2.92996 11.478 2.97496 11.412 3.01996C11.295 3.10096 11.185 3.18696 11.081 3.28196C11.05 3.30996 11.013 3.32997 10.983 3.35997L5.614 8.72896C5.576 8.76696 5.549 8.81196 5.514 8.85196C5.455 8.91796 5.401 8.98496 5.348 9.05596C5.264 9.16796 5.19 9.28297 5.124 9.40197C5.086 9.46997 5.048 9.53697 5.016 9.60797C4.949 9.75497 4.898 9.90696 4.856 10.061C4.844 10.105 4.821 10.143 4.811 10.188L3.074 17.855C2.872 18.744 3.087 19.677 3.656 20.39C4.225 21.102 5.088 21.517 6 21.517H7H15.05H21.941L30.425 6.85497Z" fill="#FF9FBA"/>
<path d="M42 21.017C42 22.398 40.881 23.517 39.5 23.517H2.5C1.119 23.517 0 22.398 0 21.017C0 19.636 1.119 18.517 2.5 18.517H39.5C40.881 18.517 42 19.636 42 21.017Z" fill="#534A78"/>
<path d="M2.01599 22.517C2.18799 29.725 7.85899 35.517 14.845 35.517H27.654C34.64 35.517 39.827 29.725 39.985 22.517H2.01599Z" fill="#534A78"/>
<path d="M41 7.51697H40.833C40.246 7.51697 39.729 7.79797 39.394 8.22697L21.657 18.467C20.94 18.881 20.694 19.799 21.108 20.516C21.522 21.233 22.44 22.479 23.157 22.065C23.157 22.065 39.964 12.358 40.03 12.323C40.648 12.004 41.59 12.525 42.312 12.056C42.901 11.673 43.148 10.997 43.214 10.324C43.347 8.95497 42.537 7.51697 41 7.51697Z" fill="#534A78"/>
</svg>
