<svg width="44" height="36" viewBox="0 0 44 36" fill="none" xmlns="http://www.w3.org/2000/svg">
<path d="M30.425 6.85496C30.833 6.06596 30.884 5.13697 30.535 4.31397C30.169 3.44797 29.419 2.80296 28.507 2.57296L20.735 0.607965C20.69 0.596965 20.644 0.598965 20.599 0.589965C20.458 0.560965 20.317 0.541965 20.171 0.532965C20.097 0.528965 20.024 0.526965 19.95 0.527965C19.812 0.529965 19.675 0.544965 19.536 0.566965C19.456 0.579965 19.376 0.590965 19.297 0.609965C19.257 0.619965 19.217 0.619964 19.177 0.630964L12.282 2.59596C12.257 2.60296 12.236 2.61696 12.211 2.62396C12.127 2.64996 12.049 2.68696 11.968 2.72096C11.845 2.77196 11.724 2.82497 11.611 2.88997C11.542 2.92997 11.478 2.97497 11.412 3.01997C11.295 3.10097 11.185 3.18696 11.081 3.28196C11.05 3.30996 11.013 3.32996 10.983 3.35996L5.614 8.72896C5.576 8.76696 5.549 8.81196 5.514 8.85196C5.455 8.91796 5.401 8.98496 5.348 9.05596C5.264 9.16796 5.19 9.28297 5.124 9.40197C5.086 9.46997 5.048 9.53696 5.016 9.60796C4.949 9.75496 4.898 9.90697 4.856 10.061C4.844 10.105 4.821 10.143 4.811 10.188L3.074 17.855C2.872 18.744 3.087 19.677 3.656 20.39C4.225 21.102 5.088 21.517 6 21.517H7H15.05H21.941L30.425 6.85496Z" fill="#AFAFAF"/>
<path d="M42 21.017C42 22.398 40.881 23.517 39.5 23.517H2.5C1.119 23.517 0 22.398 0 21.017C0 19.636 1.119 18.517 2.5 18.517H39.5C40.881 18.517 42 19.636 42 21.017Z" fill="black"/>
<path d="M2.01599 22.517C2.18799 29.725 7.85899 35.517 14.845 35.517H27.654C34.64 35.517 39.827 29.725 39.985 22.517H2.01599Z" fill="black"/>
<path d="M41 7.51697H40.833C40.246 7.51697 39.729 7.79797 39.394 8.22697L21.657 18.467C20.94 18.881 20.694 19.799 21.108 20.516C21.522 21.233 22.44 22.479 23.157 22.065C23.157 22.065 39.964 12.358 40.03 12.323C40.648 12.004 41.59 12.525 42.312 12.056C42.901 11.673 43.148 10.997 43.214 10.324C43.347 8.95497 42.537 7.51697 41 7.51697Z" fill="black"/>
</svg>
