<svg width="12" height="20" viewBox="0 0 12 20" fill="none" xmlns="http://www.w3.org/2000/svg">
<path d="M5.76816 7.27972C2.58265 7.27972 0 9.80527 0 12.9937C0 17.3991 5.78473 19.7367 5.76816 19.7304C5.75238 19.7367 11.5363 17.3991 11.5363 12.9937C11.5363 9.80758 8.95365 7.27972 5.76816 7.27972ZM5.76816 15.3069C5.33621 15.3066 4.91404 15.1781 4.55505 14.9379C4.19605 14.6976 3.91635 14.3563 3.7513 13.957C3.58625 13.5578 3.54327 13.1186 3.62779 12.6949C3.71231 12.2712 3.92053 11.8821 4.22614 11.5768C4.53174 11.2714 4.921 11.0636 5.34469 10.9795C5.76839 10.8954 6.2075 10.9389 6.60649 11.1044C7.00549 11.2699 7.34645 11.55 7.58632 11.9094C7.82612 12.2687 7.95408 12.6911 7.95389 13.1231C7.95445 13.4104 7.89828 13.695 7.78863 13.9606C7.67898 14.2261 7.51802 14.4674 7.31496 14.6707C7.1119 14.8739 6.87078 15.0351 6.60536 15.1449C6.33988 15.2547 6.05541 15.3112 5.76816 15.3108V15.3069Z" fill="#FF6F0F"/>
<path d="M7.06673 0C5.72054 0 4.78311 0.940745 4.63555 2.05197C2.84119 1.55634 1.43506 2.9201 1.43506 4.41962C1.43506 5.56793 2.22413 6.49527 3.27597 6.79674C4.12423 7.03904 5.65189 6.85829 5.65189 6.85829C5.644 6.4874 5.98567 6.08014 6.51278 5.70921C8.01201 4.65481 9.18459 4.1576 9.36528 2.71965C9.55466 1.2154 8.43813 0 7.06673 0Z" fill="#00A05B"/>
</svg>
