<svg width="34" height="36" viewBox="0 0 34 36" fill="none" xmlns="http://www.w3.org/2000/svg">
<path d="M22.076 0.516968H5.549C4.694 0.516968 4 1.51897 4 2.83197L5.033 30.516H22.592L23.625 2.83197C23.625 1.51897 22.931 0.516968 22.076 0.516968Z" fill="#FF9FBA"/>
<path d="M30.125 9.51697H29H23.047H22.953H13H3.875C1.735 9.51697 0 11.251 0 13.392V13.642C0 15.782 1.735 17.517 3.875 17.517H14V27.517H3.875C1.735 27.517 0 29.251 0 31.392V31.642C0 33.782 1.735 35.517 3.875 35.517H13H19.125H22.953H23.047C24.678 35.517 26 34.195 26 32.564V32.47V17.517H29V25.142C29 26.454 30.063 27.517 31.375 27.517H31.625C32.937 27.517 34 26.454 34 25.142V16.892V13.642V13.392C34 11.251 32.265 9.51697 30.125 9.51697Z" fill="#534A78"/>
</svg>
