<svg width="200" height="200" viewBox="0 0 200 200" fill="none" xmlns="http://www.w3.org/2000/svg">
<rect width="200" height="200" fill="none"/>
<path d="M55.6086 80.1549C54.8242 80.1326 54.4219 79.6632 54.4219 78.9144C54.4219 78.2997 54.7437 77.7521 55.6992 77.7856C56.6948 77.8191 58.143 77.8192 59.6817 77.8192V77.2045C59.6817 76.9921 59.7119 76.8021 59.7421 76.6233C59.6516 76.6457 59.5611 76.6568 59.4605 76.6568C58.495 76.6904 57.6402 76.6904 56.896 76.6568C55.9606 76.601 55.7092 76.1651 55.679 75.4387C55.6488 74.7346 55.6388 73.2258 55.679 72.4546C55.7092 71.7282 55.9606 71.2588 56.896 71.2141C57.7508 71.1806 59.0984 71.1806 59.6315 71.2365C60.2047 71.2923 60.426 71.6947 60.426 72.2758C60.426 72.8793 60.2349 73.2593 59.6013 73.2593H58.0324C57.8715 73.2593 57.791 73.3487 57.791 73.5275V74.3769C57.791 74.5557 57.8614 74.6451 58.0123 74.6451H59.4002C60.1746 74.6451 60.5366 74.8798 60.5366 75.6398V75.6957C60.6372 75.6733 60.7478 75.6622 60.8585 75.6622H60.8987L60.8886 75.4275C60.8584 74.7234 60.8484 73.2146 60.8886 72.4435C60.9188 71.717 61.1702 71.2476 62.1056 71.2029C62.9604 71.1694 64.5494 71.1694 65.0824 71.2253C65.6557 71.2812 65.877 71.6835 65.877 72.2647C65.877 72.8682 65.6859 73.2481 65.0523 73.2481H63.242C63.0811 73.2481 63.0006 73.3376 63.0006 73.5164V74.3657C63.0006 74.5446 63.071 74.634 63.2219 74.634H64.8511C65.6155 74.634 65.9876 74.8687 65.9876 75.6286C65.9876 76.2321 65.706 76.5898 64.8913 76.6233C63.9259 76.6568 62.8297 76.6568 62.0955 76.6233H61.9949C62.0351 76.7686 62.0553 76.9698 62.0553 77.1709V77.7856C63.584 77.7632 64.9718 77.7521 65.8468 77.7074C66.8525 77.6739 67.1341 78.255 67.1341 78.9032C67.1341 79.5961 66.7318 80.0991 65.9775 80.1214C63.9963 80.2332 58.2738 80.1885 55.6086 80.1549ZM57.1876 81.1608C59.3901 81.0714 61.7133 81.1049 64.2577 81.1943C65.5048 81.2278 65.6758 81.7755 65.7261 82.7366C65.7864 83.8765 65.7663 84.6253 65.7261 85.2065C65.6658 86.2235 65.1931 86.4917 64.5997 86.4917C63.9762 86.4917 63.5739 86.0335 63.5739 85.1171C63.5739 84.9159 63.5839 84.5359 63.5839 84.0665C63.5839 83.5524 63.4834 83.4854 63.0409 83.463C61.3714 83.4295 59.2091 83.4854 57.2681 83.5413C56.1115 83.5748 55.6086 83.1836 55.669 82.3007C55.7394 81.4849 56.1416 81.2166 57.1876 81.1608Z" fill="#FF9FBA"/>
<path d="M70.3518 80.1549C69.5674 80.1326 69.165 79.6632 69.165 78.9144C69.165 78.2997 69.4869 77.7521 70.4423 77.7856C71.438 77.8191 72.8862 77.8192 74.425 77.8192V77.2045C74.425 76.9921 74.4551 76.8021 74.4853 76.6233C74.3948 76.6457 74.3043 76.6568 74.2037 76.6568C73.2382 76.6904 72.3833 76.6904 71.6391 76.6568C70.7038 76.601 70.4524 76.1651 70.4222 75.4387C70.392 74.7346 70.382 73.2258 70.4222 72.4546C70.4524 71.7282 70.7038 71.2588 71.6391 71.2141C72.494 71.1806 73.8417 71.1806 74.3747 71.2365C74.948 71.2923 75.1692 71.6947 75.1692 72.2758C75.1692 72.8793 74.9781 73.2593 74.3445 73.2593H72.7756C72.6147 73.2593 72.5342 73.3487 72.5342 73.5275V74.3769C72.5342 74.5557 72.6046 74.6451 72.7554 74.6451H74.1433C74.9177 74.6451 75.2798 74.8798 75.2798 75.6398V75.6957C75.3804 75.6733 75.491 75.6622 75.6016 75.6622H75.6418L75.6318 75.4275C75.6017 74.7234 75.5916 73.2146 75.6318 72.4435C75.662 71.717 75.9134 71.2476 76.8487 71.2029C77.7036 71.1694 79.2926 71.1694 79.8257 71.2253C80.3989 71.2812 80.6201 71.6835 80.6201 72.2647C80.6201 72.8682 80.4291 73.2481 79.7955 73.2481H77.9852C77.8243 73.2481 77.7438 73.3376 77.7438 73.5164V74.3657C77.7438 74.5446 77.8142 74.634 77.965 74.634H79.5943C80.3586 74.634 80.7308 74.8687 80.7308 75.6286C80.7308 76.2321 80.4492 76.5898 79.6346 76.6233C78.6691 76.6568 77.5728 76.6568 76.8386 76.6233H76.7381C76.7783 76.7686 76.7984 76.9698 76.7984 77.1709V77.7856C78.3271 77.7632 79.715 77.7521 80.59 77.7074C81.5957 77.6739 81.8773 78.255 81.8773 78.9032C81.8773 79.5961 81.475 80.0991 80.7208 80.1214C78.7395 80.2332 73.017 80.1885 70.3518 80.1549ZM71.9308 81.1608C74.1333 81.0714 76.4565 81.1049 79.001 81.1943C80.248 81.2278 80.419 81.7755 80.4693 82.7366C80.5297 83.8765 80.5096 84.6253 80.4693 85.2065C80.409 86.2235 79.9362 86.4917 79.3429 86.4917C78.7193 86.4917 78.3171 86.0335 78.3171 85.1171C78.3171 84.9159 78.3271 84.5359 78.3271 84.0665C78.3271 83.5524 78.2265 83.4854 77.784 83.463C76.1145 83.4295 73.9523 83.4854 72.0112 83.5413C70.8547 83.5748 70.3518 83.1836 70.4122 82.3007C70.4826 81.4849 70.8848 81.2166 71.9308 81.1608Z" fill="#FF9FBA"/>
<path d="M85.0361 77.2491C85.0361 76.5227 85.2473 75.8744 85.5993 75.3268C85.3881 75.3268 85.197 75.3268 84.9959 75.3045C84.2818 75.2709 83.9399 74.891 83.9902 74.1757C84.0304 73.4716 84.2516 73.0357 85.2071 73.0804C85.7703 73.114 86.4039 73.1363 87.0677 73.1363V72.6669C87.0777 71.6164 87.5403 71.0129 88.1739 71.0129C88.8679 71.0129 89.3003 71.4152 89.3104 72.7899V73.1363C89.8535 73.114 90.3865 73.1028 90.8692 73.0581C91.7241 73.0022 92.227 73.3487 92.227 74.0975C92.227 74.8015 91.9655 75.2039 91.2012 75.2598C91.0402 75.2821 90.8592 75.2821 90.6983 75.2933C91.0503 75.8186 91.2414 76.4891 91.2414 77.2379C91.2414 79.1267 89.8233 80.4343 88.0935 80.4343C86.424 80.4454 85.0361 79.1378 85.0361 77.2491ZM85.8809 81.9542C85.9412 81.5742 86.3134 80.9931 86.9872 81.0266C87.7515 81.0601 88.0935 81.4848 88.0935 82.3565C88.0935 82.5912 88.1035 82.9936 88.0834 83.4629C88.0733 83.7759 88.2041 83.8206 88.3751 83.8206C90.2357 83.8206 92.5588 83.8206 94.3088 83.7647C95.2541 83.7312 95.8676 84.167 95.8777 84.9605C95.8877 85.8099 95.4955 86.2458 94.691 86.2681C92.2772 86.324 89.4914 86.4693 87.0375 86.2346C86.2228 86.1564 85.7602 85.9775 85.72 84.9493C85.6999 84.2229 85.7803 82.6806 85.8809 81.9542ZM88.1739 78.3443C88.8679 78.3443 89.2802 77.7855 89.2802 76.9138C89.2802 76.1091 88.9081 75.4833 88.1739 75.4833C87.4599 75.4833 87.0173 76.1203 87.0173 76.9697C87.0173 77.7744 87.5202 78.3443 88.1739 78.3443ZM94.2384 71.0017C94.9223 71.0017 95.3648 71.3593 95.395 73.0581L95.3648 75.6509C95.8073 75.6174 96.2096 75.6174 96.622 75.6174C97.0645 75.6174 97.336 76.0868 97.336 76.6903C97.336 77.2379 97.1248 77.7744 96.6521 77.8861C96.2699 77.9755 95.7973 77.9755 95.3548 77.9197C95.3548 78.4338 95.395 79.6408 95.3849 80.3672C95.3547 81.5295 94.9424 82.1442 94.2786 82.1442C93.6149 82.1442 93.1522 81.5854 93.1522 80.3672C93.1522 78.8026 93.1924 75.6062 93.112 72.924C93.0617 71.5829 93.5646 71.0017 94.2384 71.0017Z" fill="#FF9FBA"/>
<path d="M106.277 71.259C108.127 71.259 109.786 72.8236 109.786 75.327C109.786 77.5622 108.439 79.1939 106.277 79.1939C103.933 79.1939 102.817 77.5622 102.817 75.327C102.817 72.8348 104.446 71.259 106.277 71.259ZM104.667 84.916C104.637 84.3349 104.637 82.4126 104.637 81.3956C104.637 80.5909 105.019 80.2333 105.824 80.1774C108.117 80.0321 111.577 79.9986 113.095 80.1774C114.101 80.3004 114.383 80.5239 114.413 81.5521C114.443 82.3903 114.473 83.9996 114.443 85.0613C114.413 85.866 114.061 86.246 113.256 86.2795C110.832 86.3913 108.288 86.4584 105.985 86.3019C105.17 86.246 104.708 85.9554 104.667 84.916ZM106.277 76.7799C107.101 76.7799 107.594 76.087 107.594 75.2935C107.594 74.3994 107.101 73.7624 106.277 73.7624C105.432 73.7624 104.989 74.3659 104.989 75.2935C104.989 76.1205 105.432 76.7799 106.277 76.7799ZM107.212 84.0778C108.761 84.1561 110.44 84.1114 112.1 84.0555C112.281 84.0555 112.281 84.022 112.291 83.8543C112.321 83.385 112.301 82.9491 112.281 82.625C112.271 82.4015 112.22 82.312 112.059 82.312C110.501 82.2338 108.6 82.2785 107.162 82.3679C107.031 82.3679 106.981 82.4573 106.971 82.5803C106.96 82.8373 106.96 83.6532 106.971 83.8543C106.971 83.9885 107.001 84.0667 107.212 84.0778ZM111.013 74.0418C111.416 73.9636 111.808 73.9636 112.371 73.9636L112.331 72.9242C112.24 71.5831 112.643 71.0355 113.337 71.0019C114.031 70.9684 114.554 71.3596 114.594 73.0583L114.584 77.9646C114.544 79.0151 114.121 79.4733 113.457 79.4733C112.794 79.4733 112.391 79.0039 112.411 77.7857C112.411 77.4169 112.421 76.9476 112.411 76.4223C111.888 76.4447 111.416 76.4447 111.094 76.4558C110.47 76.4782 110.179 76.0535 110.118 75.3494C110.048 74.6341 110.36 74.1424 111.013 74.0418Z" fill="#FF9FBA"/>
<path d="M117.893 82.4124C117.863 80.289 117.833 76.0868 117.833 74.1087C117.833 73.0693 118.215 72.5329 118.879 72.5329C119.503 72.5329 119.875 72.8905 119.875 74.0751V76.2321H120.91C120.9 75.2486 120.9 74.4663 120.9 74.1087C120.9 73.0693 121.242 72.5329 121.906 72.5329C122.53 72.5329 122.902 72.8905 122.902 74.0751V76.2209H123.938C123.938 75.2039 123.928 74.2987 123.928 73.8293C123.928 72.9799 124.28 72.4658 124.953 72.4658C125.527 72.4658 125.959 72.8681 125.959 73.8628C125.959 75.4386 125.949 80.2555 125.919 82.3789C125.909 83.5189 125.537 83.8877 124.199 84.0106C123.033 84.1224 120.84 84.1559 119.653 84.0441C118.306 83.9324 117.913 83.5524 117.893 82.4124ZM119.895 81.0266C119.895 81.5295 119.965 81.5854 120.418 81.6301C120.508 81.6301 120.699 81.6525 120.951 81.6525C120.941 80.6019 120.941 79.5067 120.921 78.4785H119.885C119.875 79.5961 119.895 80.5908 119.895 81.0266ZM122.912 81.6525C123.123 81.6525 123.294 81.6301 123.375 81.6301C123.817 81.5966 123.908 81.5407 123.918 81.0266C123.928 80.6131 123.948 79.5961 123.948 78.445H122.892C122.892 79.4843 122.892 80.5908 122.912 81.6525ZM127.84 71.6052C128.504 71.6052 129.007 72.0635 128.996 73.751L128.986 76.8021C129.338 76.8021 129.53 76.8244 129.871 76.8356C130.435 76.8691 130.746 77.4391 130.746 78.0538C130.746 78.6908 130.525 79.3949 129.992 79.4508C129.67 79.4843 129.399 79.4843 129.017 79.4508C129.017 81.0713 128.986 82.9377 128.946 84.0441C128.906 85.2064 128.473 85.9888 127.729 85.9329C126.935 85.877 126.653 85.2623 126.724 84.0441C126.844 81.8983 126.874 77.9755 126.764 74.9245C126.754 74.4328 126.754 73.8851 126.703 73.3263C126.623 72.3317 126.874 71.6052 127.84 71.6052Z" fill="#FF9FBA"/>
<path d="M134.678 81.1387C136.82 81.284 138.821 81.1722 140.913 80.971C141.758 80.8816 142.261 81.2952 142.261 82.044C142.261 82.7481 142 83.3739 141.255 83.4633C139.244 83.698 136.458 83.7315 134.467 83.5862C133.702 83.5303 133.36 82.8933 133.401 82.1892C133.431 81.4851 133.722 81.0716 134.678 81.1387ZM134.034 76.1095C134.034 73.6955 135.664 72.075 137.574 72.075C139.485 72.075 141.115 73.6955 141.115 76.1095C141.115 78.2888 139.797 79.9652 137.574 79.9652C135.352 79.954 134.034 78.2888 134.034 76.1095ZM137.584 77.6182C138.329 77.6182 138.912 76.9477 138.912 76.076C138.912 75.0813 138.309 74.4778 137.564 74.4778C136.82 74.4778 136.217 75.0813 136.217 76.076C136.227 76.9477 136.85 77.6182 137.584 77.6182ZM144.071 71.5497C144.735 71.5497 145.298 72.0079 145.349 73.6955C145.389 75.3831 145.469 81.284 145.359 84.0109C145.318 85.1732 144.826 85.8997 144.081 85.8997C143.337 85.8997 142.955 85.2291 142.975 84.0109C143.015 81.2281 143.005 76.2548 142.965 73.5725C142.945 72.2426 143.377 71.5497 144.071 71.5497Z" fill="#FF9FBA"/>
<path d="M62.4882 116.958C54.7543 116.835 54.1408 116.332 54.1408 114.063C54.1408 111.325 55.066 111.168 68.5024 111.168C81.9387 111.168 82.864 111.336 82.864 114.063C82.864 116.343 82.2203 116.835 74.5165 116.958V117.863H75.7536C80.3799 117.863 83.0249 119.271 83.0249 123.116C83.0249 126.971 80.3799 128.413 75.7536 128.413H61.3316C56.7054 128.413 54 126.96 54 123.116C54 119.271 56.7154 117.863 61.3316 117.863H62.4982V116.958H62.4882ZM54.1307 97.4555C54.1307 92.0351 55.056 91.6552 68.4923 91.6552C81.9287 91.6552 82.854 92.024 82.854 97.4555C82.854 100.685 82.512 102.138 79.4647 102.753C82.8841 109.917 82.7031 110.375 77.3125 110.375C71.8313 110.375 71.3687 110.207 70.1015 107.48C68.8041 104.742 68.7136 104.586 68.5024 104.586C68.2912 104.586 68.1906 104.753 66.9335 107.48C65.6361 110.207 65.1735 110.375 59.6923 110.375C54.3017 110.375 54.0805 109.883 57.5301 102.753C54.4425 102.138 54.1307 100.685 54.1307 97.4555ZM66.4004 123.741H70.5943C71.0569 123.741 71.3083 123.496 71.3083 123.116C71.3083 122.747 71.0569 122.534 70.5943 122.534H66.4004C65.9378 122.534 65.6864 122.747 65.6864 123.116C65.6864 123.496 65.9378 123.741 66.4004 123.741ZM80.1687 95.5109C80.4804 95.8015 80.5408 96.5503 80.9733 96.7067L81.0638 96.7514C81.4057 96.7514 81.6169 96.4609 81.6169 96.0473C81.6169 95.5891 81.0336 94.5609 80.752 94.3039C80.1988 93.8457 79.4244 93.678 78.7808 93.678C78.469 93.678 78.2578 93.9686 78.2578 94.3821C78.2578 95.4662 79.6155 95.008 80.1687 95.5109Z" fill="#FF9FBA"/>
<path d="M125.477 91.6552C134.287 91.6552 134.88 91.9904 134.88 96.8296C134.88 101.669 134.297 102.004 125.477 102.004C116.667 102.004 116.073 101.669 116.073 96.8296C116.073 91.9904 116.657 91.6552 125.477 91.6552ZM116.073 108.017C116.073 103.178 116.657 102.842 125.477 102.842C134.287 102.842 134.88 103.178 134.88 108.017C134.88 110.42 134.729 111.738 133.522 112.409C133.703 113.616 133.925 114.98 134.136 116.589C135.614 127.687 135.403 128.424 131.119 128.424C126.804 128.424 126.462 128.055 126.221 122.669C125.97 117.326 125.909 116.958 125.638 116.958C125.326 116.958 125.266 117.326 125.024 122.669C124.743 128.055 124.441 128.424 120.126 128.424C115.812 128.424 115.631 127.675 117.139 116.589C117.32 115.058 117.542 113.728 117.723 112.577C116.224 111.906 116.073 110.576 116.073 108.017ZM133.05 95.5891C133.361 95.5891 133.573 95.2538 133.573 94.8403C133.573 94.1809 132.678 93.3092 132.245 93.3092C131.933 93.3092 131.722 93.6445 131.722 94.058C131.722 94.3933 131.873 94.6838 132.124 94.7621C132.497 94.885 132.587 95.5891 133.05 95.5891ZM144.334 110.04C144.334 127.262 144.052 128.424 139.929 128.424C135.765 128.424 135.494 127.262 135.494 110.04C135.494 92.8174 135.775 91.6552 139.929 91.6552H141.377C146.154 91.6552 146.466 92.1916 146.466 99.9366C146.466 105.614 146.315 107.436 144.344 107.972V110.04H144.334ZM145.008 95.8797C145.319 95.8797 145.531 95.5444 145.531 95.1309C145.531 94.4715 144.636 93.5998 144.203 93.5998C143.891 93.5998 143.68 93.9351 143.68 94.3486C143.68 94.6839 143.831 94.9744 144.082 95.0527C144.455 95.1756 144.545 95.8797 145.008 95.8797Z" fill="#FF9FBA"/>
<path d="M105.322 122.255V120.512C113.67 120.176 113.67 118.198 113.67 106.106C113.67 91.6552 113.67 91.6552 99.3079 91.6552C84.9463 91.6552 84.9463 91.6552 84.9463 106.106C84.9463 118.198 84.9463 120.176 93.2938 120.512V122.255C84.9765 122.3 84.9463 122.713 84.9463 125.317C84.9463 128.424 84.9463 128.424 99.3079 128.424C113.67 128.424 113.67 128.424 113.67 125.317C113.67 122.713 113.609 122.3 105.322 122.255ZM108.52 94.5162C109.536 94.5162 110.552 95.0974 110.924 96.4609C111.014 96.7514 111.105 97.1202 111.105 97.4555C111.105 97.869 110.854 98.2043 110.552 98.2043C109.596 98.2043 110.491 95.9691 108.49 95.9691C108.148 95.9691 107.816 95.8462 107.816 95.265C107.816 94.6839 108.158 94.5162 108.52 94.5162ZM92.0064 103.938C90.5783 103.938 89.4217 102.652 89.4217 101.065C89.4217 100.931 89.4419 100.797 89.462 100.674C89.4821 101.669 90.2062 102.485 91.1113 102.485C92.0265 102.485 92.7708 101.658 92.7708 100.641C92.7708 99.6237 92.0265 98.7966 91.1113 98.7966C90.6688 98.7966 90.2766 98.9978 89.9849 99.3107C90.4576 98.6402 91.1818 98.1931 92.0165 98.1931C93.4446 98.1931 94.6012 99.4784 94.6012 101.065C94.5811 102.652 93.4245 103.938 92.0064 103.938ZM101.319 118.109C101.319 118.265 101.209 118.388 101.068 118.388H96.2606C96.1198 118.388 96.0092 118.265 96.0092 118.109V106.363C96.0092 106.206 96.1198 106.083 96.2606 106.083H101.068C101.209 106.083 101.319 106.206 101.319 106.363V118.109ZM103.411 101.065C103.411 100.931 103.431 100.797 103.451 100.674C103.472 101.669 104.196 102.485 105.101 102.485C106.016 102.485 106.76 101.658 106.76 100.641C106.76 99.6237 106.016 98.7966 105.101 98.7966C104.658 98.7966 104.266 98.9978 103.974 99.3107C104.447 98.6402 105.171 98.1931 106.006 98.1931C107.434 98.1931 108.591 99.4784 108.591 101.065C108.591 102.652 107.434 103.938 106.006 103.938C104.568 103.938 103.411 102.652 103.411 101.065Z" fill="#FF9FBA"/>
</svg>
