<svg width="13" height="13" viewBox="0 0 13 13" fill="none" xmlns="http://www.w3.org/2000/svg">
<path d="M5.57399 0C2.50033 0 0 2.50033 0 5.57399C0 8.64765 2.50033 11.148 5.57399 11.148C6.54546 11.148 7.46915 10.8932 8.26543 10.4472C8.30767 10.5199 8.35559 10.5892 8.40876 10.6543L10.0013 12.2946C10.1484 12.4601 10.3277 12.5938 10.5283 12.6874C10.7289 12.7811 10.9465 12.8327 11.1677 12.8393C11.389 12.8458 11.6093 12.807 11.815 12.7253C12.0208 12.6436 12.2077 12.5207 12.3642 12.3642C12.5207 12.2077 12.6436 12.0208 12.7253 11.815C12.807 11.6093 12.8458 11.389 12.8393 11.1677C12.8327 10.9465 12.7811 10.7289 12.6874 10.5283C12.5938 10.3277 12.4601 10.1484 12.2946 10.0013L10.6543 8.40876C10.5892 8.35559 10.5199 8.30767 10.4472 8.26543C10.8772 7.46915 11.148 6.54546 11.148 5.57399C11.148 2.50033 8.64765 0 5.57399 0ZM5.57399 1.59257C7.78766 1.59257 9.55541 3.36032 9.55541 5.57399C9.55541 6.5136 9.2369 7.38952 8.71135 8.0584C8.69542 8.07432 8.6795 8.09025 8.66357 8.10617C8.6312 8.12103 8.59933 8.13696 8.56802 8.15395C8.40835 8.27613 8.27325 8.42743 8.16988 8.59987C7.46915 9.18912 6.56138 9.53948 5.57399 9.53948C3.36032 9.53948 1.59257 7.77173 1.59257 5.55806C1.59257 3.34439 3.36032 1.57664 5.57399 1.57664V1.59257Z" fill="white"/>
</svg>
