<svg width="41" height="36" viewBox="0 0 41 36" fill="none" xmlns="http://www.w3.org/2000/svg">
<path d="M28.564 1.00102C31.182 0.433021 34.544 0.586023 36.835 2.06802C39.762 3.96002 40.337 7.93102 40.177 11.162C39.876 17.212 40.801 24.568 37.103 29.828C36.164 31.164 34.786 32.343 33.353 33.126C28.483 35.786 19.629 35.455 9.807 35.455C-2.871 35.455 -1.31899 17.86 8.77201 17.86C11.802 17.86 16.816 17.628 17.828 14.047C18.636 11.189 19.632 8.40803 21.246 5.89703C22.883 3.34903 25.612 1.64202 28.564 1.00102Z" fill="#534A78"/>
<path d="M35.039 14.263C34.624 16.174 33.767 17.919 32.639 18.7C31.064 19.791 28.722 18.996 26.624 18.428C24.824 17.941 23.052 17.059 22.166 15.656C21.28 14.253 22.185 12.574 22.633 10.92C24.013 5.82403 29.952 3.92004 33.995 7.66604C35.367 8.93704 35.586 11.744 35.039 14.263Z" fill="white"/>
<path d="M27.823 15.399C27.642 15.399 27.466 15.371 27.294 15.316C26.477 15.051 26.128 14.261 26.091 14.172C25.985 13.917 26.106 13.625 26.361 13.519C26.614 13.412 26.906 13.533 27.013 13.786C27.021 13.805 27.222 14.245 27.608 14.368C27.86 14.447 28.168 14.377 28.524 14.159C28.758 14.015 29.067 14.089 29.212 14.325C29.356 14.56 29.282 14.868 29.046 15.013C28.623 15.269 28.213 15.399 27.823 15.399Z" fill="#534A78"/>
<path d="M26.1686 10.8375C26.4053 10.9016 26.6877 10.619 26.7994 10.2064C26.9111 9.79372 26.8098 9.40726 26.5731 9.34319C26.3364 9.27912 26.0539 9.56168 25.9422 9.97432C25.8305 10.387 25.9319 10.7734 26.1686 10.8375Z" fill="#534A78"/>
<path d="M30.2786 11.9506C30.5153 12.0147 30.7978 11.7321 30.9095 11.3195C31.0212 10.9069 30.9198 10.5204 30.6831 10.4563C30.4464 10.3923 30.164 10.6748 30.0523 11.0875C29.9406 11.5001 30.0419 11.8866 30.2786 11.9506Z" fill="#534A78"/>
<path d="M27.07 29.2851C24.496 29.2851 22.368 28.6131 20.72 27.2731C17.553 24.6981 17.421 20.6421 17.417 20.4711C17.404 19.9191 17.84 19.4611 18.393 19.4481C18.944 19.4181 19.402 19.8701 19.416 20.4221C19.419 20.4941 19.56 23.7661 21.997 25.7351C23.827 27.2131 26.518 27.6381 29.999 26.9991C30.548 26.8991 31.063 27.2591 31.163 27.8021C31.263 28.3451 30.904 28.8661 30.36 28.9661C29.194 29.1781 28.096 29.2851 27.07 29.2851Z" fill="#FF9FBA"/>
<path d="M16.103 31.797C16.005 31.797 15.906 31.782 15.808 31.752C13.043 30.899 11.138 29.482 10.145 27.54C8.834 24.977 9.657 22.474 9.692 22.369C9.869 21.847 10.437 21.563 10.96 21.742C11.482 21.919 11.762 22.483 11.588 23.005C11.575 23.047 11.01 24.866 11.938 26.654C12.68 28.085 14.181 29.157 16.397 29.841C16.925 30.004 17.22 30.564 17.058 31.091C16.925 31.521 16.529 31.797 16.103 31.797Z" fill="#FF9FBA"/>
</svg>
