<svg width="41" height="36" viewBox="0 0 41 36" fill="none" xmlns="http://www.w3.org/2000/svg">
<path d="M28.564 1.00102C31.182 0.433022 34.544 0.586021 36.835 2.06802C39.762 3.96002 40.337 7.93102 40.177 11.162C39.876 17.212 40.801 24.568 37.103 29.828C36.164 31.164 34.786 32.343 33.353 33.126C28.483 35.786 19.629 35.455 9.807 35.455C-2.871 35.455 -1.31899 17.86 8.77201 17.86C11.802 17.86 16.816 17.628 17.828 14.047C18.636 11.189 19.632 8.40802 21.246 5.89702C22.883 3.34902 25.612 1.64202 28.564 1.00102Z" fill="black"/>
<path d="M35.039 14.263C34.624 16.174 33.767 17.919 32.639 18.7C31.064 19.791 28.722 18.996 26.624 18.428C24.824 17.941 23.052 17.059 22.166 15.656C21.28 14.253 22.185 12.574 22.633 10.92C24.013 5.82403 29.952 3.92004 33.995 7.66604C35.367 8.93704 35.586 11.744 35.039 14.263Z" fill="white"/>
<path d="M26.552 13.98C26.552 13.98 27.205 15.55 28.784 14.584Z" fill="white"/>
<path d="M26.552 13.98C26.552 13.98 27.205 15.55 28.784 14.584" stroke="black" stroke-miterlimit="10" stroke-linecap="round"/>
<path d="M26.1691 10.8353C26.4058 10.8994 26.6882 10.6168 26.7999 10.2042C26.9116 9.79152 26.8103 9.40507 26.5736 9.34099C26.3369 9.27692 26.0544 9.55948 25.9427 9.97212C25.831 10.3848 25.9324 10.7712 26.1691 10.8353Z" fill="black"/>
<path d="M30.2791 11.9483C30.5158 12.0124 30.7983 11.7298 30.91 11.3172C31.0217 10.9046 30.9203 10.5181 30.6836 10.454C30.4469 10.39 30.1645 10.6725 30.0528 11.0852C29.9411 11.4978 30.0424 11.8842 30.2791 11.9483Z" fill="black"/>
<path d="M27.07 29.2851C24.496 29.2851 22.368 28.6131 20.72 27.2731C17.553 24.6981 17.421 20.6421 17.417 20.4711C17.404 19.9191 17.84 19.4611 18.393 19.4481C18.944 19.4181 19.402 19.8701 19.416 20.4221C19.419 20.4941 19.56 23.7661 21.997 25.7351C23.827 27.2131 26.518 27.6381 29.999 26.9991C30.548 26.8991 31.063 27.2591 31.163 27.8021C31.263 28.3451 30.904 28.8661 30.36 28.9661C29.194 29.1781 28.096 29.2851 27.07 29.2851Z" fill="#AFAFAF"/>
<path d="M16.103 31.797C16.005 31.797 15.906 31.782 15.808 31.752C13.043 30.899 11.138 29.482 10.145 27.54C8.834 24.977 9.657 22.474 9.692 22.369C9.869 21.847 10.437 21.563 10.96 21.742C11.482 21.919 11.762 22.483 11.588 23.005C11.575 23.047 11.01 24.866 11.938 26.654C12.68 28.085 14.181 29.157 16.397 29.841C16.925 30.004 17.22 30.564 17.058 31.091C16.925 31.521 16.529 31.797 16.103 31.797Z" fill="#AFAFAF"/>
</svg>
