<svg width="18" height="17" viewBox="0 0 18 17" fill="none" xmlns="http://www.w3.org/2000/svg">
    <path d="M3.65001 4.79044L5.06606 4.35003C5.17764 4.31536 5.29486 4.30336 5.41101 4.31472C5.52716 4.32607 5.63997 4.36056 5.743 4.4162C5.84603 4.47185 5.93727 4.54757 6.01149 4.63903C6.08572 4.7305 6.14149 4.83592 6.17561 4.94928C6.20974 5.06264 6.22155 5.18172 6.21037 5.29972C6.19919 5.41772 6.16525 5.53233 6.11048 5.637C6.0557 5.74167 5.98117 5.83435 5.89114 5.90976C5.8011 5.98517 5.69733 6.04183 5.58574 6.07649L2.18778 7.13241C2.07614 7.16708 1.95886 7.17906 1.84266 7.16766C1.72645 7.15626 1.6136 7.1217 1.51055 7.06596C1.40751 7.01023 1.31628 6.9344 1.2421 6.84282C1.16792 6.75124 1.11223 6.64571 1.07822 6.53225L0.0388428 3.08023C0.00471952 2.96686 -0.00709111 2.84779 0.00408521 2.72979C0.0152615 2.61179 0.0492059 2.49718 0.10398 2.39251C0.158755 2.28784 0.233286 2.19515 0.32332 2.11975C0.413354 2.04434 0.517126 1.98768 0.628712 1.95302C0.85407 1.883 1.09757 1.90681 1.30566 2.01919C1.51374 2.13157 1.66935 2.32333 1.73827 2.55227L2.12915 3.85276C4.26831 0.505421 8.51199 -0.934051 12.2795 0.634477C13.4062 1.10365 14.418 1.81795 15.2438 2.72713C16.0695 3.63631 16.689 4.71828 17.0589 5.8969C17.0968 6.01043 17.1121 6.13051 17.1038 6.2501C17.0955 6.3697 17.0639 6.48642 17.0107 6.59346C16.9575 6.70049 16.8839 6.79568 16.7941 6.87348C16.7043 6.95128 16.6001 7.01013 16.4877 7.04658C16.3753 7.08304 16.2568 7.09637 16.1393 7.08579C16.0217 7.07522 15.9074 7.04096 15.803 6.98502C15.6987 6.92907 15.6063 6.85255 15.5314 6.75994C15.4564 6.66732 15.4004 6.56047 15.3666 6.44561C14.9912 5.24834 14.2903 4.18333 13.3446 3.37353C12.3988 2.56374 11.247 2.0422 10.0219 1.86913C8.79686 1.69605 7.54861 1.87851 6.42128 2.39543C5.29396 2.91234 4.33264 3.74264 3.65001 4.79044ZM14.6008 12.1864L13.024 12.5862C12.9098 12.618 12.7905 12.6263 12.6731 12.6106C12.5557 12.5949 12.4426 12.5555 12.3404 12.4948C12.2383 12.434 12.149 12.3532 12.0781 12.2569C12.0071 12.1607 11.9557 12.051 11.9271 11.9343C11.8984 11.8176 11.893 11.6962 11.9112 11.5774C11.9293 11.4585 11.9707 11.3446 12.0328 11.2422C12.095 11.1398 12.1766 11.0511 12.273 10.9812C12.3693 10.9113 12.4785 10.8617 12.594 10.8353L15.8303 10.015C15.9989 9.93346 16.1886 9.90819 16.3722 9.94276C16.5491 9.9664 16.7149 10.0436 16.848 10.1643C16.9811 10.2851 17.0753 10.4437 17.1184 10.6196L17.9783 14.1213C18.0293 14.3513 17.9896 14.5924 17.8678 14.793C17.7461 14.9937 17.5518 15.138 17.3267 15.1951C17.1015 15.2521 16.8633 15.2174 16.6631 15.0984C16.4628 14.9794 16.3163 14.7854 16.2549 14.5581L15.9618 13.365C15.1064 14.6155 13.9349 15.6084 12.5707 16.2393C11.2065 16.8701 9.70007 17.1155 8.2101 16.9496C6.72013 16.7837 5.3018 16.2126 4.1045 15.2965C2.90721 14.3803 1.97529 13.1531 1.40691 11.7441L1.17594 11.172C1.13173 11.0623 1.10921 10.9448 1.10968 10.8263C1.11015 10.7078 1.13359 10.5905 1.17868 10.4812C1.22376 10.3718 1.28959 10.2726 1.37242 10.1891C1.45525 10.1057 1.55346 10.0396 1.66143 9.99465C1.87948 9.90394 2.12408 9.90494 2.34141 9.99743C2.44902 10.0432 2.54669 10.1101 2.62886 10.1943C2.71103 10.2784 2.77607 10.3782 2.82029 10.4879L3.05126 11.0591C3.5041 12.1817 4.25009 13.1573 5.20874 13.8806C6.16738 14.604 7.30227 15.0477 8.49094 15.1638C9.67961 15.2799 10.8769 15.064 11.9537 14.5395C13.0304 14.0149 13.9457 13.2007 14.6008 12.1864Z" fill="white"/>
</svg>