<svg width="191" height="30" viewBox="0 0 191 30" fill="none" xmlns="http://www.w3.org/2000/svg">
<path d="M20.2252 10.3727H0.754913V11.952V11.9983C0.754913 16.2562 3.85248 19.733 7.63722 19.733H13.3429C17.1277 19.733 20.2252 16.2504 20.2252 11.9983V11.952V10.3727Z" fill="#4D5AAF"/>
<path d="M0.656197 11.1483L0.650726 11.1248C0.650726 11.1306 0.656197 11.1365 0.656197 11.1483Z" fill="#FF0000"/>
<path d="M0.869324 10.1057L0.989051 9.95618C0.947403 10.0022 0.905766 10.054 0.869324 10.1057Z" fill="#FF0000"/>
<path d="M0.655876 11.1479C0.655876 11.1479 0.629852 10.9628 0.629852 10.8818C0.629852 10.5926 0.723571 10.3265 0.869338 10.1124L0.989065 9.962L8.61061 0.439658L8.71474 0.312384C8.90215 0.121475 9.14682 0 9.41753 0C9.61536 0 9.80276 0.0636294 9.95894 0.173547C10.037 0.248754 10.1203 0.329753 10.2088 0.41653C11.6405 1.83389 14.2435 5.14876 14.2435 10.5289L0.655876 11.1479Z" fill="#4D5AAF"/>
<path d="M19.9597 11.7611H1.02559C0.458142 11.7611 0 11.252 0 10.6214V10.3611C0 9.73051 0.458142 9.22144 1.02559 9.22144H19.9597C20.5272 9.22144 20.9853 9.73051 20.9853 10.3611V10.6214C20.9853 11.252 20.5272 11.7611 19.9597 11.7611Z" fill="#FF9FBA"/>
<path d="M19.8296 11.5297C19.257 11.5297 18.7885 11.0091 18.7885 10.3727C18.7885 7.97766 19.913 6.66443 21.9589 6.66443C22.5316 6.66443 23.0001 7.18509 23.0001 7.82146C23.0001 8.45782 22.5316 8.97848 21.9589 8.97848C21.204 8.97848 20.8708 9.11154 20.8708 10.3727C20.8708 11.0149 20.4023 11.5297 19.8296 11.5297Z" fill="#FF9FBA"/>
<path d="M11.6562 23.3776L13.978 24.8644L14.8214 24.3264L14.9724 24.228C15.5398 23.9388 16.227 24.1239 16.6123 24.6503C16.8778 25.0148 16.9767 25.4776 16.8882 25.9578C16.784 26.5189 16.3572 26.9875 15.8574 27.1032C15.5554 27.1727 15.2587 27.138 14.988 27.0049L14.7225 26.8313L12.8119 25.6049H12.8171L10.4952 24.1181H10.49C10.49 24.1181 7.16343 21.9834 7.11658 21.9545L7.06971 21.9255C7.06971 21.9255 7.0645 21.9256 7.0645 21.9198C6.55432 21.6421 6.00248 21.4974 5.43503 21.4974C4.31575 21.4974 3.27458 22.0528 2.56657 23.0131C1.85856 23.9793 1.58782 25.2404 1.82209 26.4727C2.11362 28.0289 3.25376 29.2958 4.64896 29.6198C4.90925 29.6776 5.17473 29.7123 5.43503 29.7123C5.99728 29.7123 6.54911 29.5735 7.0645 29.29H7.06971C7.07492 29.29 7.07493 29.2842 7.08013 29.2842L7.40811 29.076L9.32912 27.8437L7.00724 26.357L6.24716 26.8487L6.27322 26.9008L6.24198 26.8487L6.0025 26.9991C5.73179 27.1379 5.42463 27.1727 5.11747 27.1032C4.6125 26.9875 4.19082 26.5132 4.0867 25.9578C3.9982 25.4776 4.09189 25.0148 4.3626 24.6503C4.75305 24.1181 5.44546 23.933 6.00771 24.228L6.11701 24.2975L7.29357 25.0495L8.16299 25.6107L13.5512 29.0702L13.9416 29.3189C14.4466 29.5851 14.9828 29.7239 15.5346 29.7239C15.7949 29.7239 16.0552 29.695 16.3207 29.6313C17.7211 29.3074 18.856 28.0404 19.1476 26.4842C19.3766 25.252 19.1059 23.9908 18.4031 23.0247C17.6951 22.0586 16.6539 21.509 15.5346 21.509C14.9672 21.509 14.4258 21.6478 13.9156 21.9255C13.9156 21.9255 13.9104 21.9255 13.9104 21.9313L13.9052 21.9371C13.8323 21.9776 11.6562 23.3776 11.6562 23.3776Z" fill="#FF9FBA"/>
<path d="M31.2257 21.4552C30.4155 21.4321 30 20.9473 30 20.1739C30 19.5391 30.3324 18.9735 31.3192 19.0081C32.3475 19.0427 33.8432 19.0428 35.4324 19.0428V18.4079C35.4324 18.1886 35.4635 17.9924 35.4947 17.8077C35.4012 17.8308 35.3078 17.8423 35.2039 17.8423C34.2068 17.877 33.3239 17.877 32.5552 17.8423C31.5892 17.7846 31.3295 17.3345 31.2984 16.5842C31.2672 15.857 31.2568 14.2988 31.2984 13.5023C31.3295 12.752 31.5892 12.2673 32.5552 12.2211C33.4381 12.1865 34.83 12.1865 35.3805 12.2442C35.9725 12.3019 36.201 12.7174 36.201 13.3176C36.201 13.9409 36.0037 14.3334 35.3493 14.3334H33.729C33.5628 14.3334 33.4796 14.4257 33.4796 14.6104V15.4876C33.4796 15.6723 33.5524 15.7646 33.7082 15.7646H35.1416C35.9414 15.7646 36.3153 16.0071 36.3153 16.792V16.8497C36.4192 16.8266 36.5335 16.815 36.6477 16.815H36.6892L36.6788 16.5726C36.6477 15.8455 36.6373 14.2872 36.6788 13.4908C36.71 12.7405 36.9697 12.2557 37.9357 12.2096C38.8186 12.1749 40.4597 12.1749 41.0102 12.2326C41.6023 12.2903 41.8308 12.7059 41.8308 13.3061C41.8308 13.9294 41.6335 14.3218 40.9791 14.3218H39.1094C38.9432 14.3218 38.8601 14.4142 38.8601 14.5989V15.4761C38.8601 15.6608 38.9328 15.7531 39.0886 15.7531H40.7713C41.5607 15.7531 41.9451 15.9955 41.9451 16.7804C41.9451 17.4037 41.6542 17.7731 40.8129 17.8077C39.8157 17.8423 38.6836 17.8423 37.9253 17.8077H37.8214C37.8629 17.9578 37.8838 18.1655 37.8838 18.3733V19.0081C39.4626 18.985 40.896 18.9735 41.7996 18.9273C42.8383 18.8927 43.1292 19.4929 43.1292 20.1624C43.1292 20.878 42.7137 21.3975 41.9347 21.4205C39.8884 21.536 33.9782 21.4898 31.2257 21.4552ZM32.8564 22.494C35.1312 22.4016 37.5306 22.4363 40.1585 22.5286C41.4465 22.5632 41.6231 23.1288 41.675 24.1215C41.7373 25.2988 41.7165 26.0722 41.675 26.6724C41.6127 27.7228 41.1245 27.9998 40.5117 27.9998C39.8677 27.9998 39.4522 27.5266 39.4522 26.5801C39.4522 26.3723 39.4626 25.9799 39.4626 25.4951C39.4626 24.9641 39.3587 24.8948 38.9017 24.8718C37.1774 24.8371 34.9442 24.8948 32.9395 24.9526C31.745 24.9872 31.2257 24.5832 31.288 23.6713C31.3607 22.8287 31.7762 22.5517 32.8564 22.494Z" fill="#FF9FBA"/>
<path d="M46.4531 21.4552C45.6429 21.4321 45.2274 20.9473 45.2274 20.1739C45.2274 19.5391 45.5598 18.9735 46.5466 19.0081C47.5749 19.0427 49.0706 19.0428 50.6598 19.0428V18.4079C50.6598 18.1886 50.691 17.9924 50.7222 17.8077C50.6287 17.8308 50.5352 17.8423 50.4313 17.8423C49.4341 17.877 48.5513 17.877 47.7826 17.8423C46.8166 17.7846 46.5569 17.3345 46.5258 16.5842C46.4946 15.857 46.4842 14.2988 46.5258 13.5023C46.5569 12.752 46.8166 12.2673 47.7826 12.2211C48.6655 12.1865 50.0574 12.1865 50.6079 12.2442C51.2 12.3019 51.4285 12.7174 51.4285 13.3176C51.4285 13.9409 51.2311 14.3334 50.5767 14.3334H48.9564C48.7902 14.3334 48.7071 14.4257 48.7071 14.6104V15.4876C48.7071 15.6723 48.7798 15.7646 48.9356 15.7646H50.369C51.1688 15.7646 51.5427 16.0071 51.5427 16.792V16.8497C51.6466 16.8266 51.7608 16.815 51.8751 16.815H51.9166L51.9063 16.5726C51.8751 15.8455 51.8647 14.2872 51.9063 13.4908C51.9375 12.7405 52.1971 12.2557 53.1631 12.2096C54.046 12.1749 55.6872 12.1749 56.2377 12.2326C56.8297 12.2903 57.0582 12.7059 57.0582 13.3061C57.0582 13.9294 56.8609 14.3218 56.2065 14.3218H54.3368C54.1706 14.3218 54.0875 14.4142 54.0875 14.5989V15.4761C54.0875 15.6608 54.1602 15.7531 54.316 15.7531H55.9987C56.7881 15.7531 57.1725 15.9955 57.1725 16.7804C57.1725 17.4037 56.8817 17.7731 56.0403 17.8077C55.0432 17.8423 53.9109 17.8423 53.1527 17.8077H53.0488C53.0904 17.9578 53.1112 18.1655 53.1112 18.3733V19.0081C54.69 18.985 56.1234 18.9735 57.0271 18.9273C58.0658 18.8927 58.3566 19.4929 58.3566 20.1624C58.3566 20.878 57.9411 21.3975 57.1621 21.4205C55.1159 21.536 49.2057 21.4898 46.4531 21.4552ZM48.0838 22.494C50.3586 22.4016 52.758 22.4363 55.3859 22.5286C56.6739 22.5632 56.8505 23.1288 56.9024 24.1215C56.9648 25.2988 56.944 26.0722 56.9024 26.6724C56.8401 27.7228 56.3519 27.9998 55.739 27.9998C55.095 27.9998 54.6796 27.5266 54.6796 26.5801C54.6796 26.3723 54.69 25.9799 54.69 25.4951C54.69 24.9641 54.5861 24.8948 54.1291 24.8718C52.4048 24.8371 50.1716 24.8948 48.1669 24.9526C46.9724 24.9872 46.4531 24.5832 46.5154 23.6713C46.5881 22.8287 47.0036 22.5517 48.0838 22.494Z" fill="#FF9FBA"/>
<path d="M61.6182 18.454C61.6182 17.7037 61.8363 17.0343 62.1999 16.4687C61.9817 16.4687 61.7844 16.4687 61.5767 16.4456C60.8392 16.411 60.486 16.0185 60.538 15.2798C60.5795 14.5526 60.808 14.1024 61.7947 14.1486C62.3764 14.1832 63.0308 14.2063 63.7164 14.2063V13.7215C63.7268 12.6365 64.2045 12.0132 64.8589 12.0132C65.5756 12.0132 66.0223 12.4288 66.0327 13.8485V14.2063C66.5936 14.1833 67.1441 14.1717 67.6426 14.1255C68.5255 14.0678 69.0449 14.4256 69.0449 15.199C69.0449 15.9262 68.7748 16.3417 67.9854 16.3994C67.8192 16.4225 67.6323 16.4225 67.4661 16.4341C67.8296 16.9766 68.027 17.6691 68.027 18.4425C68.027 20.3931 66.5624 21.7436 64.7758 21.7436C63.0516 21.7552 61.6182 20.4047 61.6182 18.454ZM62.4907 23.3134C62.553 22.921 62.9373 22.3208 63.6333 22.3554C64.4227 22.39 64.7758 22.8286 64.7758 23.729C64.7758 23.9714 64.7862 24.3869 64.7654 24.8717C64.755 25.1949 64.8901 25.241 65.0667 25.241C66.9883 25.241 69.3876 25.241 71.195 25.1833C72.1714 25.1487 72.805 25.5989 72.8154 26.4184C72.8257 27.2956 72.4207 27.7458 71.5897 27.7689C69.0968 27.8266 66.2196 27.9766 63.6852 27.7342C62.8438 27.6534 62.366 27.4687 62.3245 26.4068C62.3037 25.6566 62.3868 24.0637 62.4907 23.3134ZM64.8589 19.5852C65.5756 19.5852 66.0015 19.008 66.0015 18.1077C66.0015 17.2766 65.6172 16.6303 64.8589 16.6303C64.1215 16.6303 63.6644 17.2882 63.6644 18.1654C63.6644 18.9965 64.1838 19.5852 64.8589 19.5852ZM71.1223 12.0017C71.8286 12.0017 72.2856 12.3711 72.3168 14.1255L72.2857 16.8034C72.7427 16.7688 73.1582 16.7688 73.5841 16.7688C74.0411 16.7688 74.3215 17.2536 74.3215 17.8769C74.3215 18.4425 74.1034 18.9965 73.6152 19.1119C73.2205 19.2043 72.7323 19.2043 72.2753 19.1466C72.2753 19.6775 72.3168 20.9241 72.3064 21.6744C72.2752 22.8748 71.8494 23.5097 71.1639 23.5097C70.4783 23.5097 70.0005 22.9325 70.0005 21.6744C70.0005 20.0584 70.042 16.7573 69.9589 13.987C69.907 12.6019 70.4264 12.0017 71.1223 12.0017Z" fill="#FF9FBA"/>
<path d="M83.5555 12.2675C85.4667 12.2675 87.1806 13.8834 87.1806 16.469C87.1806 18.7775 85.7887 20.4627 83.5555 20.4627C81.1354 20.4627 79.9824 18.7775 79.9824 16.469C79.9824 13.895 81.6651 12.2675 83.5555 12.2675ZM81.8936 26.3725C81.8625 25.7723 81.8624 23.787 81.8624 22.7366C81.8624 21.9055 82.2571 21.5362 83.0881 21.4784C85.4563 21.3284 89.0295 21.2938 90.598 21.4784C91.6367 21.6054 91.9275 21.8363 91.9587 22.8982C91.9898 23.7639 92.0209 25.426 91.9898 26.5225C91.9586 27.3536 91.5951 27.746 90.7641 27.7807C88.2608 27.8961 85.633 27.9654 83.2543 27.8038C82.413 27.7461 81.9352 27.4459 81.8936 26.3725ZM83.5555 17.9695C84.4073 17.9695 84.9162 17.2539 84.9162 16.4343C84.9162 15.5109 84.4073 14.853 83.5555 14.853C82.683 14.853 82.226 15.4763 82.226 16.4343C82.226 17.2885 82.683 17.9695 83.5555 17.9695ZM84.5215 25.5068C86.1211 25.5876 87.8557 25.5414 89.5696 25.4837C89.7566 25.4837 89.7566 25.4491 89.7669 25.276C89.7981 24.7912 89.7773 24.341 89.7565 24.0063C89.7462 23.7754 89.6943 23.6831 89.5281 23.6831C87.9181 23.6023 85.9549 23.6484 84.4696 23.7408C84.3346 23.7408 84.2826 23.8331 84.2722 23.9601C84.2618 24.2256 84.2618 25.0682 84.2722 25.276C84.2722 25.4145 84.3034 25.4952 84.5215 25.5068ZM88.4478 15.1416C88.8633 15.0608 89.2684 15.0608 89.8501 15.0608L89.8085 13.9873C89.7151 12.6022 90.1305 12.0366 90.8472 12.002C91.5639 11.9674 92.1041 12.3714 92.1456 14.1258L92.1352 19.193C92.0937 20.278 91.6574 20.7513 90.9719 20.7513C90.2863 20.7513 89.8708 20.2665 89.8916 19.0083C89.8916 18.6274 89.902 18.1427 89.8916 17.6002C89.3515 17.6232 88.8633 17.6232 88.5309 17.6348C87.8869 17.6579 87.5857 17.2192 87.5234 16.492C87.4507 15.7533 87.7727 15.2455 88.4478 15.1416Z" fill="#FF9FBA"/>
<path d="M95.5527 23.7869C95.5216 21.5938 95.4904 17.2538 95.4904 15.2108C95.4904 14.1373 95.8852 13.5833 96.5707 13.5833C97.2147 13.5833 97.599 13.9527 97.599 15.1762V17.4039H98.6688C98.6585 16.3881 98.6584 15.5802 98.6584 15.2108C98.6584 14.1373 99.0116 13.5833 99.6971 13.5833C100.341 13.5833 100.726 13.9527 100.726 15.1762V17.3923H101.795C101.795 16.342 101.785 15.407 101.785 14.9222C101.785 14.045 102.149 13.514 102.844 13.514C103.437 13.514 103.883 13.9296 103.883 14.9569C103.883 16.5844 103.873 21.5592 103.842 23.7523C103.831 24.9296 103.447 25.3105 102.065 25.4375C100.861 25.5529 98.5961 25.5876 97.3705 25.4721C95.9786 25.3567 95.5735 24.9643 95.5527 23.7869ZM97.6197 22.3557C97.6197 22.8751 97.6925 22.9328 98.1599 22.9789C98.2534 22.9789 98.4508 23.002 98.7104 23.002C98.7 21.917 98.7 20.7859 98.6792 19.724H97.6094C97.599 20.8782 97.6197 21.9055 97.6197 22.3557ZM100.736 23.002C100.954 23.002 101.131 22.9789 101.214 22.9789C101.671 22.9443 101.764 22.8866 101.775 22.3557C101.785 21.9286 101.806 20.8782 101.806 19.6893H100.715C100.715 20.7628 100.715 21.9055 100.736 23.002ZM105.826 12.6252C106.511 12.6252 107.03 13.0985 107.02 14.8414L107.01 17.9926C107.373 17.9926 107.571 18.0157 107.924 18.0272C108.505 18.0618 108.827 18.6505 108.827 19.2853C108.827 19.9433 108.599 20.6704 108.048 20.7282C107.716 20.7628 107.435 20.7628 107.041 20.7282C107.041 22.4018 107.01 24.3294 106.968 25.4721C106.927 26.6726 106.48 27.4805 105.711 27.4228C104.891 27.3651 104.6 26.7303 104.673 25.4721C104.797 23.256 104.828 19.2045 104.714 16.0534C104.704 15.5455 104.704 14.9799 104.652 14.4028C104.569 13.3755 104.828 12.6252 105.826 12.6252Z" fill="#FF9FBA"/>
<path d="M112.888 22.471C115.101 22.6211 117.168 22.5057 119.328 22.2979C120.201 22.2055 120.72 22.6326 120.72 23.406C120.72 24.1332 120.45 24.7796 119.682 24.8719C117.604 25.1143 114.727 25.1489 112.67 24.9988C111.881 24.9411 111.528 24.2832 111.569 23.556C111.6 22.8288 111.902 22.4018 112.888 22.471ZM112.224 17.2769C112.224 14.7837 113.906 13.11 115.88 13.11C117.853 13.11 119.536 14.7837 119.536 17.2769C119.536 19.5277 118.175 21.2591 115.88 21.2591C113.584 21.2475 112.224 19.5277 112.224 17.2769ZM115.89 18.8351C116.659 18.8351 117.261 18.1426 117.261 17.2422C117.261 16.2149 116.638 15.5917 115.87 15.5917C115.101 15.5917 114.478 16.2149 114.478 17.2422C114.488 18.1426 115.132 18.8351 115.89 18.8351ZM122.59 12.5675C123.276 12.5675 123.857 13.0408 123.909 14.7837C123.951 16.5266 124.034 22.6211 123.919 25.4375C123.878 26.6379 123.369 27.3882 122.6 27.3882C121.832 27.3882 121.437 26.6956 121.458 25.4375C121.499 22.5634 121.489 17.4269 121.447 14.6567C121.427 13.2831 121.873 12.5675 122.59 12.5675Z" fill="#FF9FBA"/>
<path d="M138.31 20.6572C133.472 20.5802 133.088 20.2657 133.088 18.8464C133.088 17.1336 133.667 17.0357 142.072 17.0357C150.477 17.0357 151.056 17.1406 151.056 18.8464C151.056 20.2727 150.654 20.5802 145.834 20.6572V21.2234H146.608C149.502 21.2234 151.157 22.1044 151.157 24.5094C151.157 26.9214 149.502 27.8232 146.608 27.8232H137.586C134.692 27.8232 133 26.9144 133 24.5094C133 22.1044 134.699 21.2234 137.586 21.2234H138.316V20.6572H138.31ZM133.082 8.45734C133.082 5.06656 133.661 4.82886 142.066 4.82886C150.471 4.82886 151.05 5.05957 151.05 8.45734C151.05 10.4778 150.836 11.3867 148.93 11.7712C151.069 16.2527 150.956 16.5393 147.583 16.5393C144.155 16.5393 143.865 16.4344 143.073 14.7285C142.261 13.0157 142.204 12.9178 142.072 12.9178C141.94 12.9178 141.877 13.0227 141.091 14.7285C140.279 16.4344 139.99 16.5393 136.561 16.5393C133.189 16.5393 133.05 16.2317 135.208 11.7712C133.277 11.3867 133.082 10.4778 133.082 8.45734ZM140.757 24.9009H143.381C143.67 24.9009 143.827 24.7471 143.827 24.5094C143.827 24.2787 143.67 24.1458 143.381 24.1458H140.757C140.468 24.1458 140.311 24.2787 140.311 24.5094C140.311 24.7471 140.468 24.9009 140.757 24.9009ZM149.37 7.24086C149.565 7.42264 149.603 7.89106 149.873 7.98894L149.93 8.01689C150.144 8.01689 150.276 7.83513 150.276 7.57645C150.276 7.28981 149.911 6.64661 149.735 6.48581C149.389 6.19917 148.905 6.09428 148.502 6.09428C148.307 6.09428 148.175 6.27606 148.175 6.53474C148.175 7.21289 149.024 6.92626 149.37 7.24086Z" fill="#4D5AAF"/>
<path d="M177.713 4.82886C183.224 4.82886 183.595 5.0386 183.595 8.06583C183.595 11.0931 183.23 11.3028 177.713 11.3028C172.202 11.3028 171.83 11.0931 171.83 8.06583C171.83 5.0386 172.195 4.82886 177.713 4.82886ZM171.83 15.0641C171.83 12.0369 172.195 11.8272 177.713 11.8272C183.224 11.8272 183.595 12.0369 183.595 15.0641C183.595 16.5672 183.501 17.3923 182.746 17.8117C182.859 18.5668 182.998 19.4197 183.13 20.4265C184.055 27.3688 183.922 27.8302 181.242 27.8302C178.543 27.8302 178.329 27.5995 178.178 24.2297C178.021 20.8879 177.983 20.6572 177.814 20.6572C177.619 20.6572 177.581 20.8879 177.43 24.2297C177.254 27.5995 177.065 27.8302 174.366 27.8302C171.667 27.8302 171.554 27.3618 172.497 20.4265C172.611 19.4687 172.749 18.6367 172.862 17.9166C171.925 17.4971 171.83 16.6651 171.83 15.0641ZM182.45 7.28981C182.645 7.28981 182.777 7.08006 182.777 6.82138C182.777 6.4089 182.218 5.86358 181.947 5.86358C181.752 5.86358 181.62 6.07333 181.62 6.332C181.62 6.54174 181.714 6.7235 181.872 6.77244C182.104 6.84934 182.161 7.28981 182.45 7.28981ZM189.509 16.3295C189.509 27.1031 189.333 27.8302 186.754 27.8302C184.149 27.8302 183.979 27.1031 183.979 16.3295C183.979 5.55594 184.155 4.82886 186.754 4.82886H187.66C190.648 4.82886 190.843 5.16444 190.843 10.0094C190.843 13.561 190.749 14.7006 189.516 15.0362V16.3295H189.509ZM189.931 7.47157C190.126 7.47157 190.258 7.26184 190.258 7.00316C190.258 6.59068 189.698 6.04536 189.427 6.04536C189.232 6.04536 189.1 6.25509 189.1 6.51376C189.1 6.7235 189.195 6.90528 189.352 6.95422C189.585 7.03112 189.641 7.47157 189.931 7.47157Z" fill="#4D5AAF"/>
<path d="M165.105 23.9711V22.8804C170.327 22.6707 170.327 21.4332 170.327 13.8686C170.327 4.82887 170.327 4.82886 161.343 4.82886C152.359 4.82886 152.359 4.82887 152.359 13.8686C152.359 21.4332 152.359 22.6707 157.581 22.8804V23.9711C152.378 23.999 152.359 24.2577 152.359 25.8867C152.359 27.8303 152.359 27.8302 161.343 27.8302C170.327 27.8302 170.327 27.8303 170.327 25.8867C170.327 24.2577 170.289 23.999 165.105 23.9711ZM167.106 6.61863C167.741 6.61863 168.377 6.98219 168.609 7.83513C168.666 8.0169 168.723 8.24761 168.723 8.45734C168.723 8.71602 168.565 8.92577 168.377 8.92577C167.779 8.92577 168.339 7.52751 167.087 7.52751C166.873 7.52751 166.665 7.4506 166.665 7.08706C166.665 6.72351 166.879 6.61863 167.106 6.61863ZM156.775 12.5123C155.882 12.5123 155.158 11.7083 155.158 10.7155C155.158 10.6316 155.171 10.5477 155.184 10.4708C155.196 11.0931 155.649 11.6035 156.215 11.6035C156.788 11.6035 157.253 11.0861 157.253 10.4499C157.253 9.81366 156.788 9.29631 156.215 9.29631C155.938 9.29631 155.693 9.42215 155.511 9.6179C155.806 9.19842 156.259 8.91877 156.782 8.91877C157.675 8.91877 158.398 9.72278 158.398 10.7155C158.386 11.7083 157.662 12.5123 156.775 12.5123ZM162.601 21.3773C162.601 21.4752 162.532 21.5521 162.444 21.5521H159.436C159.348 21.5521 159.279 21.4752 159.279 21.3773V14.0294C159.279 13.9315 159.348 13.8546 159.436 13.8546H162.444C162.532 13.8546 162.601 13.9315 162.601 14.0294V21.3773ZM163.91 10.7155C163.91 10.6316 163.922 10.5477 163.935 10.4708C163.947 11.0931 164.4 11.6035 164.967 11.6035C165.539 11.6035 166.005 11.0861 166.005 10.4499C166.005 9.81366 165.539 9.29631 164.967 9.29631C164.69 9.29631 164.444 9.42215 164.262 9.6179C164.558 9.19842 165.011 8.91877 165.533 8.91877C166.426 8.91877 167.15 9.72278 167.15 10.7155C167.15 11.7083 166.426 12.5123 165.533 12.5123C164.633 12.5123 163.91 11.7083 163.91 10.7155Z" fill="#4D5AAF"/>
</svg>
