<svg width="139" height="55" viewBox="0 0 139 55" fill="none" xmlns="http://www.w3.org/2000/svg">
<path d="M36.4231 20.1506H1.35938V22.9948V23.0782C1.35938 30.7461 6.93772 37.0075 13.7536 37.0075H24.0289C30.8447 37.0075 36.4231 30.7356 36.4231 23.0782V22.9948V20.1506Z" fill="#4D5AAF"/>
<path d="M1.18132 21.5456L1.17188 21.505C1.17188 21.5152 1.18132 21.5253 1.18132 21.5456Z" fill="#FF0000"/>
<path d="M1.56543 19.6698L1.78104 19.4005C1.70604 19.4834 1.63106 19.5766 1.56543 19.6698Z" fill="#FF0000"/>
<path d="M1.18114 21.5468C1.18114 21.5468 1.13428 21.2134 1.13428 21.0676C1.13428 20.5466 1.30305 20.0674 1.56556 19.6819L1.78118 19.411L15.5067 2.26247L15.6942 2.03327C16.0317 1.68946 16.4723 1.4707 16.9598 1.4707C17.3161 1.4707 17.6536 1.58529 17.9348 1.78324C18.0755 1.91868 18.2255 2.06455 18.3849 2.22082C20.9631 4.77331 25.6507 10.743 25.6507 20.432L1.18114 21.5468Z" fill="#4D5AAF"/>
<path d="M35.945 22.651H1.84697C0.825057 22.651 0 21.7342 0 20.5986V20.1298C0 18.9942 0.825057 18.0774 1.84697 18.0774H35.945C36.9669 18.0774 37.792 18.9942 37.792 20.1298V20.5986C37.792 21.7342 36.9669 22.651 35.945 22.651Z" fill="#FF9FBA"/>
<path d="M35.7108 22.2343C34.6795 22.2343 33.8357 21.2967 33.8357 20.1507C33.8357 15.8375 35.8608 13.4725 39.5453 13.4725C40.5766 13.4725 41.4203 14.4102 41.4203 15.5562C41.4203 16.7022 40.5766 17.6399 39.5453 17.6399C38.1859 17.6399 37.5858 17.8795 37.5858 20.1507C37.5858 21.3071 36.742 22.2343 35.7108 22.2343Z" fill="#FF9FBA"/>
<path d="M20.9914 43.5709L25.1728 46.2484L26.6916 45.2795L26.9635 45.1024C27.9854 44.5815 29.2229 44.9149 29.9167 45.8629C30.3948 46.5193 30.5729 47.3528 30.4136 48.2175C30.2261 49.2281 29.4573 50.0719 28.5573 50.2803C28.0135 50.4053 27.4791 50.3428 26.9916 50.1032L26.5135 49.7907L23.0727 47.582H23.0821L18.9007 44.9045H18.8913C18.8913 44.9045 12.9005 41.0601 12.8161 41.008L12.7317 40.9559C12.7317 40.9559 12.7223 40.9559 12.7223 40.9455C11.8036 40.4454 10.8098 40.1849 9.78787 40.1849C7.77218 40.1849 5.89716 41.1851 4.62212 42.9145C3.34708 44.6544 2.85951 46.9256 3.2814 49.1447C3.80642 51.9473 5.85966 54.2289 8.37224 54.8123C8.84101 54.9165 9.3191 54.979 9.78787 54.979C10.8004 54.979 11.7942 54.7289 12.7223 54.2184H12.7317C12.7411 54.2184 12.7411 54.208 12.7505 54.208L13.3412 53.833L16.8006 51.6139L12.6192 48.9363L11.2504 49.8219L11.2973 49.9157L11.2411 49.8219L10.8098 50.0928C10.3223 50.3428 9.76913 50.4053 9.21599 50.2803C8.30658 50.0719 7.5472 49.2176 7.35969 48.2175C7.20031 47.3528 7.36904 46.5193 7.85656 45.8629C8.55971 44.9044 9.80665 44.5711 10.8192 45.1024L11.016 45.2274L13.1349 46.5818L14.7006 47.5923L24.404 53.8225L25.1072 54.2705C26.0166 54.7498 26.9822 54.9998 27.976 54.9998C28.4448 54.9998 28.9135 54.9477 29.3917 54.8331C31.9136 54.2497 33.9575 51.9681 34.4825 49.1655C34.895 46.9464 34.4075 44.6752 33.1418 42.9354C31.8668 41.1955 29.9917 40.2058 27.976 40.2058C26.9541 40.2058 25.9791 40.4558 25.0603 40.9559C25.0603 40.9559 25.0509 40.9559 25.0509 40.9663L25.0415 40.9767C24.9103 41.0497 20.9914 43.5709 20.9914 43.5709Z" fill="#FF9FBA"/>
<path d="M53.3453 8.53426C52.614 8.51343 52.239 8.07584 52.239 7.37781C52.239 6.80481 52.539 6.2943 53.4297 6.32555C54.3579 6.35681 55.7079 6.35684 57.1423 6.35684V5.78381C57.1423 5.58587 57.1704 5.40877 57.1985 5.24207C57.1142 5.26291 57.0298 5.27333 56.9361 5.27333C56.036 5.30458 55.2391 5.30458 54.5454 5.27333C53.6735 5.22123 53.4391 4.81492 53.4109 4.13773C53.3828 3.48138 53.3734 2.07489 53.4109 1.35603C53.4391 0.678837 53.6735 0.241283 54.5454 0.19961C55.3423 0.168355 56.5985 0.168344 57.0954 0.220435C57.6298 0.272527 57.836 0.647579 57.836 1.18933C57.836 1.75192 57.658 2.10615 57.0673 2.10615H55.6048C55.4548 2.10615 55.3797 2.18948 55.3797 2.35618V3.14798C55.3797 3.31467 55.4454 3.39801 55.586 3.39801H56.8798C57.6017 3.39801 57.9392 3.61681 57.9392 4.32526V4.37733C58.033 4.3565 58.1361 4.34608 58.2392 4.34608H58.2767L58.2673 4.1273C58.2392 3.47095 58.2298 2.06446 58.2673 1.3456C58.2955 0.668409 58.5299 0.230855 59.4018 0.189182C60.1987 0.157927 61.6799 0.157915 62.1768 0.210007C62.7112 0.262098 62.9175 0.637182 62.9175 1.17893C62.9175 1.74152 62.7394 2.09572 62.1487 2.09572H60.4612C60.3112 2.09572 60.2361 2.17909 60.2361 2.34578V3.13755C60.2361 3.30424 60.3018 3.38761 60.4424 3.38761H61.9612C62.6737 3.38761 63.0206 3.60638 63.0206 4.31483C63.0206 4.87742 62.7581 5.21082 61.9987 5.24207C61.0987 5.27333 60.0768 5.27333 59.3924 5.24207H59.2986C59.3361 5.37751 59.3549 5.56503 59.3549 5.75256V6.32555C60.78 6.30472 62.0737 6.29432 62.8894 6.25265C63.8269 6.2214 64.0894 6.76312 64.0894 7.36739C64.0894 8.01332 63.7144 8.48217 63.0112 8.50301C61.1643 8.60719 55.8298 8.56552 53.3453 8.53426ZM54.8172 9.47191C56.8704 9.38856 59.0361 9.41981 61.408 9.50316C62.5706 9.53442 62.73 10.0449 62.7769 10.9409C62.8331 12.0036 62.8144 12.7016 62.7769 13.2433C62.7206 14.1914 62.28 14.4414 61.7268 14.4414C61.1456 14.4414 60.7705 14.0143 60.7705 13.16C60.7705 12.9725 60.7799 12.6182 60.7799 12.1807C60.7799 11.7014 60.6862 11.6389 60.2737 11.6181C58.7174 11.5868 56.7017 11.6389 54.8922 11.691C53.8141 11.7223 53.3453 11.3576 53.4015 10.5346C53.4672 9.77403 53.8422 9.524 54.8172 9.47191Z" fill="#FF9FBA"/>
<path d="M67.0897 8.53426C66.3585 8.51343 65.9834 8.07584 65.9834 7.37781C65.9834 6.80481 66.2834 6.2943 67.1741 6.32555C68.1022 6.35681 69.4523 6.35684 70.8867 6.35684V5.78381C70.8867 5.58587 70.9149 5.40877 70.943 5.24207C70.8586 5.26291 70.7742 5.27333 70.6804 5.27333C69.7804 5.30458 68.9835 5.30458 68.2897 5.27333C67.4178 5.22123 67.1834 4.81492 67.1553 4.13773C67.1272 3.48138 67.1178 2.07489 67.1553 1.35603C67.1834 0.678837 67.4178 0.241283 68.2897 0.19961C69.0866 0.168355 70.343 0.168344 70.8399 0.220435C71.3743 0.272527 71.5805 0.647579 71.5805 1.18933C71.5805 1.75192 71.4024 2.10615 70.8117 2.10615H69.3492C69.1992 2.10615 69.1242 2.18948 69.1242 2.35618V3.14798C69.1242 3.31467 69.1898 3.39801 69.3304 3.39801H70.6242C71.3461 3.39801 71.6836 3.61681 71.6836 4.32526V4.37733C71.7774 4.3565 71.8805 4.34608 71.9836 4.34608H72.0211L72.0118 4.1273C71.9837 3.47095 71.9743 2.06446 72.0118 1.3456C72.0399 0.668409 72.2742 0.230855 73.1462 0.189182C73.9431 0.157927 75.4244 0.157915 75.9213 0.210007C76.4557 0.262098 76.6619 0.637182 76.6619 1.17893C76.6619 1.74152 76.4838 2.09572 75.8931 2.09572H74.2056C74.0556 2.09572 73.9806 2.17909 73.9806 2.34578V3.13755C73.9806 3.30424 74.0462 3.38761 74.1868 3.38761H75.7056C76.4181 3.38761 76.765 3.60638 76.765 4.31483C76.765 4.87742 76.5025 5.21082 75.7431 5.24207C74.8431 5.27333 73.8212 5.27333 73.1368 5.24207H73.043C73.0805 5.37751 73.0993 5.56503 73.0993 5.75256V6.32555C74.5243 6.30472 75.8181 6.29432 76.6338 6.25265C77.5713 6.2214 77.8338 6.76312 77.8338 7.36739C77.8338 8.01332 77.4588 8.48217 76.7557 8.50301C74.9087 8.60719 69.5742 8.56552 67.0897 8.53426ZM68.5616 9.47191C70.6148 9.38856 72.7805 9.41981 75.1525 9.50316C76.315 9.53442 76.4744 10.0449 76.5213 10.9409C76.5776 12.0036 76.5588 12.7016 76.5213 13.2433C76.465 14.1914 76.0244 14.4414 75.4712 14.4414C74.8899 14.4414 74.515 14.0143 74.515 13.16C74.515 12.9725 74.5244 12.6182 74.5244 12.1807C74.5244 11.7014 74.4306 11.6389 74.0181 11.6181C72.4617 11.5868 70.4461 11.6389 68.6366 11.691C67.5585 11.7223 67.0897 11.3576 67.146 10.5346C67.2116 9.77403 67.5866 9.524 68.5616 9.47191Z" fill="#FF9FBA"/>
<path d="M80.7776 5.82542C80.7776 5.14823 80.9745 4.54397 81.3026 4.03347C81.1058 4.03347 80.9276 4.03348 80.7401 4.01265C80.0745 3.98139 79.7557 3.62716 79.8026 2.96039C79.8401 2.30403 80.0463 1.89771 80.937 1.93938C81.462 1.97063 82.0527 1.99149 82.6715 1.99149V1.55391C82.6808 0.574584 83.1121 0.0119836 83.7027 0.0119836C84.3496 0.0119836 84.7528 0.387071 84.7621 1.66852V1.99149C85.2684 1.97065 85.7653 1.96023 86.2153 1.91855C87.0122 1.86646 87.481 2.18942 87.481 2.88745C87.481 3.5438 87.2372 3.91887 86.5247 3.97096C86.3747 3.9918 86.2059 3.9918 86.0559 4.00222C86.3841 4.49188 86.5622 5.11697 86.5622 5.81499C86.5622 7.57569 85.2402 8.79465 83.6277 8.79465C82.0714 8.80507 80.7776 7.58612 80.7776 5.82542ZM81.5651 10.2115C81.6214 9.8573 81.9683 9.31557 82.5964 9.34682C83.309 9.37807 83.6277 9.77397 83.6277 10.5866C83.6277 10.8054 83.6371 11.1804 83.6183 11.618C83.6089 11.9097 83.7309 11.9514 83.8902 11.9514C85.6247 11.9514 87.7903 11.9514 89.4216 11.8993C90.3029 11.868 90.8748 12.2744 90.8842 13.0141C90.8936 13.8058 90.5279 14.2122 89.7779 14.233C87.5278 14.2851 84.9309 14.4205 82.6433 14.2018C81.8839 14.1288 81.4526 13.9621 81.4151 13.0036C81.3964 12.3264 81.4714 10.8887 81.5651 10.2115ZM83.7027 6.8464C84.3496 6.8464 84.734 6.32548 84.734 5.51285C84.734 4.76274 84.3871 4.17931 83.7027 4.17931C83.0371 4.17931 82.6245 4.77317 82.6245 5.56497C82.6245 6.31508 83.0933 6.8464 83.7027 6.8464ZM89.3561 0.00158691C89.9936 0.00158691 90.4061 0.334969 90.4342 1.91855L90.4061 4.33561C90.8186 4.30436 91.1936 4.30436 91.578 4.30436C91.9905 4.30436 92.2436 4.74192 92.2436 5.30451C92.2436 5.815 92.0467 6.31509 91.6061 6.41927C91.2498 6.50262 90.8092 6.50262 90.3967 6.45053C90.3967 6.92977 90.4342 8.05495 90.4248 8.73214C90.3967 9.81565 90.0123 10.3887 89.3935 10.3887C88.7748 10.3887 88.3435 9.86774 88.3435 8.73214C88.3435 7.27358 88.381 4.29394 88.306 1.79354C88.2591 0.543341 88.7279 0.00158691 89.3561 0.00158691Z" fill="#FF9FBA"/>
<path d="M100.578 0.241404C102.303 0.241404 103.85 1.69998 103.85 4.03369C103.85 6.11735 102.594 7.63842 100.578 7.63842C98.3939 7.63842 97.3533 6.11735 97.3533 4.03369C97.3533 1.7104 98.8721 0.241404 100.578 0.241404ZM99.0784 12.9726C99.0502 12.4308 99.0502 10.6389 99.0502 9.69083C99.0502 8.94071 99.4065 8.60733 100.156 8.55523C102.294 8.4198 105.519 8.38854 106.935 8.55523C107.872 8.66984 108.135 8.87821 108.163 9.8367C108.191 10.6181 108.219 12.1183 108.191 13.108C108.163 13.8582 107.835 14.2124 107.085 14.2436C104.825 14.3478 102.453 14.4103 100.307 14.2645C99.5471 14.2124 99.1159 13.9415 99.0784 12.9726ZM100.578 5.38806C101.347 5.38806 101.807 4.74213 101.807 4.00243C101.807 3.16897 101.347 2.57513 100.578 2.57513C99.7909 2.57513 99.3783 3.13771 99.3783 4.00243C99.3783 4.77339 99.7909 5.38806 100.578 5.38806ZM101.45 12.1912C102.894 12.2641 104.46 12.2225 106.007 12.1704C106.175 12.1704 106.175 12.1391 106.185 11.9829C106.213 11.5453 106.194 11.139 106.175 10.8368C106.166 10.6285 106.119 10.5451 105.969 10.5451C104.516 10.4722 102.744 10.5139 101.403 10.5972C101.282 10.5972 101.235 10.6806 101.225 10.7952C101.216 11.0348 101.216 11.7953 101.225 11.9829C101.225 12.1079 101.253 12.1808 101.45 12.1912ZM104.994 2.83559C105.369 2.76266 105.735 2.76265 106.26 2.76265L106.222 1.79376C106.138 0.543557 106.513 0.0330579 107.16 0.0018029C107.807 -0.0294521 108.294 0.335185 108.332 1.91877L108.322 6.4924C108.285 7.47172 107.891 7.89888 107.272 7.89888C106.654 7.89888 106.279 7.4613 106.297 6.3257C106.297 5.98189 106.307 5.54436 106.297 5.05469C105.81 5.07553 105.369 5.07553 105.069 5.08595C104.488 5.10678 104.216 4.71087 104.16 4.05451C104.094 3.38774 104.385 2.92935 104.994 2.83559Z" fill="#FF9FBA"/>
<path d="M111.407 10.6389C111.379 8.65938 111.351 4.7421 111.351 2.89806C111.351 1.92915 111.707 1.42907 112.326 1.42907C112.907 1.42907 113.254 1.76246 113.254 2.8668V4.87753H114.22C114.21 3.96072 114.21 3.23144 114.21 2.89806C114.21 1.92915 114.529 1.42907 115.148 1.42907C115.729 1.42907 116.076 1.76246 116.076 2.8668V4.8671H117.042C117.042 3.91903 117.032 3.07517 117.032 2.6376C117.032 1.84581 117.36 1.36656 117.989 1.36656C118.523 1.36656 118.926 1.74162 118.926 2.66885C118.926 4.13784 118.917 8.62813 118.889 10.6076C118.879 11.6703 118.532 12.0141 117.285 12.1287C116.198 12.2329 114.154 12.2641 113.048 12.1599C111.791 12.0557 111.426 11.7015 111.407 10.6389ZM113.273 9.347C113.273 9.81582 113.338 9.86789 113.76 9.90956C113.845 9.90956 114.023 9.93042 114.257 9.93042C114.248 8.9511 114.248 7.93011 114.229 6.97162H113.263C113.254 8.01345 113.273 8.94068 113.273 9.347ZM116.085 9.93042C116.282 9.93042 116.442 9.90956 116.517 9.90956C116.929 9.87831 117.014 9.82624 117.023 9.347C117.032 8.96152 117.051 8.01346 117.051 6.94037H116.067C116.067 7.90927 116.067 8.94068 116.085 9.93042ZM120.679 0.564331C121.298 0.564331 121.767 0.991496 121.757 2.56466L121.748 5.40887C122.076 5.40887 122.254 5.42971 122.573 5.44013C123.098 5.47138 123.389 6.00271 123.389 6.57572C123.389 7.16957 123.183 7.82592 122.686 7.87801C122.386 7.90927 122.132 7.90927 121.776 7.87801C121.776 9.38867 121.748 11.1285 121.711 12.1599C121.673 13.2434 121.27 13.9727 120.576 13.9206C119.836 13.8685 119.573 13.2955 119.639 12.1599C119.751 10.1596 119.779 6.50277 119.676 3.65857C119.667 3.20017 119.667 2.68968 119.62 2.16876C119.545 1.24153 119.779 0.564331 120.679 0.564331Z" fill="#FF9FBA"/>
<path d="M127.054 9.45123C129.051 9.58667 130.917 9.48249 132.867 9.29496C133.654 9.21162 134.123 9.59712 134.123 10.2951C134.123 10.9515 133.879 11.5349 133.186 11.6183C131.311 11.837 128.714 11.8683 126.857 11.7328C126.145 11.6808 125.826 11.0869 125.864 10.4306C125.892 9.7742 126.164 9.38872 127.054 9.45123ZM126.454 4.76299C126.454 2.51263 127.973 1.00199 129.754 1.00199C131.536 1.00199 133.054 2.51263 133.054 4.76299C133.054 6.79456 131.826 8.35732 129.754 8.35732C127.682 8.3469 126.454 6.79456 126.454 4.76299ZM129.764 6.16947C130.457 6.16947 131.001 5.54436 131.001 4.73174C131.001 3.80451 130.439 3.24192 129.745 3.24192C129.051 3.24192 128.489 3.80451 128.489 4.73174C128.498 5.54436 129.079 6.16947 129.764 6.16947ZM135.811 0.512329C136.43 0.512329 136.955 0.939494 137.001 2.51266C137.039 4.08583 137.114 9.58668 137.011 12.1287C136.973 13.2123 136.514 13.8894 135.82 13.8894C135.126 13.8894 134.77 13.2643 134.789 12.1287C134.826 9.53459 134.817 4.89844 134.779 2.39804C134.761 1.15826 135.164 0.512329 135.811 0.512329Z" fill="#FF9FBA"/>
<path d="M59.7582 42.8419C52.5486 42.7273 51.9767 42.2585 51.9767 40.1436C51.9767 37.5911 52.8392 37.4453 65.3646 37.4453C77.8901 37.4453 78.7526 37.6016 78.7526 40.1436C78.7526 42.269 78.1526 42.7273 70.9711 42.8419V43.6858H72.1243C76.4369 43.6858 78.9026 44.9985 78.9026 48.5824C78.9026 52.1768 76.4369 53.5207 72.1243 53.5207H58.68C54.3674 53.5207 51.8455 52.1663 51.8455 48.5824C51.8455 44.9985 54.3768 43.6858 58.68 43.6858H59.7676V42.8419H59.7582ZM51.9673 24.662C51.9673 19.6091 52.8298 19.2549 65.3553 19.2549C77.8807 19.2549 78.7432 19.5987 78.7432 24.662C78.7432 27.6729 78.4245 29.0273 75.5838 29.6003C78.7714 36.2784 78.6026 36.7056 73.5774 36.7056C68.4679 36.7056 68.0366 36.5493 66.8553 34.0072C65.6459 31.4547 65.5615 31.3089 65.3646 31.3089C65.1678 31.3089 65.074 31.4652 63.9021 34.0072C62.6927 36.5493 62.2614 36.7056 57.1519 36.7056C52.1267 36.7056 51.9205 36.2472 55.1362 29.6003C52.258 29.0273 51.9673 27.6729 51.9673 24.662ZM63.4052 49.1659H67.3147C67.746 49.1659 67.9803 48.9367 67.9803 48.5824C67.9803 48.2386 67.746 48.0407 67.3147 48.0407H63.4052C62.9739 48.0407 62.7396 48.2386 62.7396 48.5824C62.7396 48.9367 62.9739 49.1659 63.4052 49.1659ZM76.24 22.8492C76.5306 23.1201 76.5869 23.8181 76.9901 23.964L77.0744 24.0056C77.3932 24.0056 77.59 23.7348 77.59 23.3493C77.59 22.9222 77.0463 21.9637 76.7838 21.7241C76.2681 21.2969 75.5462 21.1406 74.9462 21.1406C74.6556 21.1406 74.4587 21.4115 74.4587 21.797C74.4587 22.8075 75.7243 22.3804 76.24 22.8492Z" fill="#4D5AAF"/>
<path d="M118.476 19.2549C126.689 19.2549 127.242 19.5674 127.242 24.0786C127.242 28.5897 126.698 28.9023 118.476 28.9023C110.263 28.9023 109.71 28.5897 109.71 24.0786C109.71 19.5674 110.254 19.2549 118.476 19.2549ZM109.71 34.5073C109.71 29.9962 110.254 29.6837 118.476 29.6837C126.689 29.6837 127.242 29.9962 127.242 34.5073C127.242 36.7472 127.101 37.9766 125.976 38.6017C126.145 39.7269 126.351 40.9979 126.548 42.4982C127.926 52.8436 127.729 53.5311 123.735 53.5311C119.713 53.5311 119.395 53.1874 119.17 48.1658C118.935 43.1858 118.879 42.8419 118.626 42.8419C118.335 42.8419 118.279 43.1858 118.054 48.1658C117.792 53.1874 117.51 53.5311 113.488 53.5311C109.466 53.5311 109.297 52.8332 110.704 42.4982C110.872 41.0709 111.079 39.8311 111.248 38.758C109.851 38.1329 109.71 36.8931 109.71 34.5073ZM125.535 22.9222C125.826 22.9222 126.023 22.6096 126.023 22.2241C126.023 21.6094 125.189 20.7968 124.785 20.7968C124.495 20.7968 124.298 21.1094 124.298 21.4948C124.298 21.8074 124.439 22.0782 124.673 22.1512C125.02 22.2658 125.104 22.9222 125.535 22.9222ZM136.055 36.393C136.055 52.4476 135.792 53.5311 131.948 53.5311C128.067 53.5311 127.814 52.4476 127.814 36.393C127.814 20.3384 128.076 19.2549 131.948 19.2549H133.298C137.752 19.2549 138.042 19.755 138.042 26.9749C138.042 32.2674 137.902 33.9656 136.064 34.4656V36.393H136.055ZM136.683 23.193C136.973 23.193 137.17 22.8805 137.17 22.495C137.17 21.8803 136.336 21.0677 135.933 21.0677C135.642 21.0677 135.445 21.3802 135.445 21.7657C135.445 22.0783 135.586 22.3491 135.82 22.4221C136.167 22.5367 136.251 23.193 136.683 23.193Z" fill="#4D5AAF"/>
<path d="M99.6878 47.7803V46.155C107.469 45.8425 107.469 43.9984 107.469 32.7258C107.469 19.2549 107.469 19.2549 94.0813 19.2549C80.6934 19.2549 80.6934 19.2549 80.6934 32.7258C80.6934 43.9984 80.6934 45.8425 88.4749 46.155V47.7803C80.7215 47.822 80.6934 48.2074 80.6934 50.6349C80.6934 53.5312 80.6934 53.5311 94.0813 53.5311C107.469 53.5311 107.469 53.5312 107.469 50.6349C107.469 48.2074 107.413 47.822 99.6878 47.7803ZM102.669 21.922C103.616 21.922 104.563 22.4637 104.91 23.7348C104.994 24.0057 105.079 24.3494 105.079 24.662C105.079 25.0475 104.844 25.36 104.563 25.36C103.672 25.36 104.507 23.2764 102.641 23.2764C102.322 23.2764 102.013 23.1618 102.013 22.62C102.013 22.0783 102.332 21.922 102.669 21.922ZM87.2748 30.7046C85.9436 30.7046 84.8654 29.5065 84.8654 28.0271C84.8654 27.9021 84.8842 27.7771 84.9029 27.6625C84.9217 28.5897 85.5967 29.3503 86.4404 29.3503C87.2936 29.3503 87.9874 28.5793 87.9874 27.6312C87.9874 26.6832 87.2936 25.9122 86.4404 25.9122C86.0279 25.9122 85.6623 26.0997 85.3904 26.3914C85.831 25.7663 86.5061 25.3496 87.2842 25.3496C88.6155 25.3496 89.6937 26.5477 89.6937 28.0271C89.6749 29.5065 88.5968 30.7046 87.2748 30.7046ZM95.9564 43.9151C95.9564 44.0609 95.8533 44.1755 95.722 44.1755H91.2406C91.1093 44.1755 91.0062 44.0609 91.0062 43.9151V32.9654C91.0062 32.8195 91.1093 32.7049 91.2406 32.7049H95.722C95.8533 32.7049 95.9564 32.8195 95.9564 32.9654V43.9151ZM97.9065 28.0271C97.9065 27.9021 97.9252 27.7771 97.944 27.6625C97.9627 28.5897 98.6377 29.3503 99.4815 29.3503C100.335 29.3503 101.028 28.5793 101.028 27.6312C101.028 26.6832 100.335 25.9122 99.4815 25.9122C99.069 25.9122 98.7034 26.0997 98.4315 26.3914C98.8721 25.7663 99.5471 25.3496 100.325 25.3496C101.657 25.3496 102.735 26.5477 102.735 28.0271C102.735 29.5065 101.657 30.7046 100.325 30.7046C98.9846 30.7046 97.9065 29.5065 97.9065 28.0271Z" fill="#4D5AAF"/>
</svg>
