<svg width="37" height="36" viewBox="0 0 37 36" fill="none" xmlns="http://www.w3.org/2000/svg">
<path d="M37 21.517C37 29.249 30.732 35.517 23 35.517H14C6.268 35.517 0 29.249 0 21.517V14.517C0 6.78497 6.268 0.516968 14 0.516968H23C30.732 0.516968 37 6.78497 37 14.517V21.517Z" fill="#534A78"/>
<mask id="mask0_410_289" style="mask-type:luminance" maskUnits="userSpaceOnUse" x="0" y="0" width="37" height="36">
<path d="M37 21.517C37 29.249 30.732 35.517 23 35.517H14C6.268 35.517 0 29.249 0 21.517V14.517C0 6.78497 6.268 0.516968 14 0.516968H23C30.732 0.516968 37 6.78497 37 14.517V21.517Z" fill="white"/>
</mask>
<g mask="url(#mask0_410_289)">
<path d="M45.047 11.506L44.34 10.799L37.976 17.163L33.733 12.92L40.097 6.556L39.39 5.849L33.026 12.213L28.783 7.97L34.44 2.313L33.733 1.606L28.076 7.263L23.833 3.02L29.489 -2.636L28.782 -3.343L23.126 2.313L18.883 -1.93L24.54 -7.587L23.833 -8.294L18.176 -2.637L11.813 -9L11.106 -8.293L17.47 -1.929L13.227 2.314L6.86301 -4.05L6.15601 -3.343L12.52 3.021L8.27699 7.264L1.91299 0.900002L1.20599 1.607L7.57001 7.971L3.327 12.214L-3.037 5.85L-3.744 6.557L2.62 12.921L-1.623 17.164L-7.987 10.8L-8.694 11.507L-2.33 17.871L-8.694 24.235L-7.987 24.942L-1.623 18.578L2.62 22.821L-3.744 29.185L-3.037 29.892L3.327 23.528L7.57001 27.771L1.20599 34.135L1.91299 34.842L8.27699 28.478L12.52 32.721L6.86301 38.378L7.57001 39.085L13.227 33.428L17.47 37.671L11.813 43.328L12.52 44.035L18.177 38.378L23.834 44.035L24.541 43.328L18.884 37.671L23.127 33.428L28.784 39.085L29.491 38.378L23.834 32.721L28.077 28.478L33.734 34.135L34.441 33.428L28.784 27.771L33.027 23.528L38.684 29.185L39.391 28.478L33.734 22.821L37.977 18.578L43.634 24.235L44.341 23.528L38.684 17.871L45.047 11.506ZM32.319 12.92L28.076 17.163L23.833 12.92L28.076 8.677L32.319 12.92ZM17.47 17.87L13.227 22.113L8.98399 17.87L13.227 13.627L17.47 17.87ZM13.934 12.92L18.177 8.677L22.42 12.92L18.177 17.163L13.934 12.92ZM18.177 18.577L22.42 22.82L18.177 27.063L13.934 22.82L18.177 18.577ZM18.884 17.87L23.127 13.627L27.37 17.87L23.127 22.113L18.884 17.87ZM27.37 7.971L23.127 12.214L18.884 7.971L23.127 3.728L27.37 7.971ZM18.177 -1.222L22.42 3.021L18.177 7.264L13.934 3.021L18.177 -1.222ZM13.227 3.728L17.47 7.971L13.227 12.214L8.98399 7.971L13.227 3.728ZM8.27699 8.678L12.52 12.921L8.27699 17.164L4.034 12.921L8.27699 8.678ZM-0.914993 17.87L3.328 13.627L7.571 17.87L3.328 22.113L-0.914993 17.87ZM4.034 22.82L8.27699 18.577L12.52 22.82L8.27699 27.063L4.034 22.82ZM8.98399 27.77L13.227 23.527L17.47 27.77L13.227 32.013L8.98399 27.77ZM18.177 36.962L13.934 32.719L18.177 28.476L22.42 32.719L18.177 36.962ZM23.126 32.013L18.883 27.77L23.126 23.527L27.369 27.77L23.126 32.013ZM28.076 27.063L23.833 22.82L28.076 18.577L32.319 22.82L28.076 27.063ZM33.026 22.113L28.783 17.87L33.026 13.627L37.269 17.87L33.026 22.113Z" fill="#FF9FBA"/>
</g>
</svg>
