<svg width="38" height="38" viewBox="0 0 38 38" fill="none" xmlns="http://www.w3.org/2000/svg">
<path d="M12.679 4.94304C12.735 5.25504 12.728 5.57404 12.624 5.90004C12.524 6.21404 12.318 6.62204 12.074 6.85004C11.846 7.06404 11.517 7.32004 11.22 7.42604C10.615 7.64004 9.869 7.69604 9.276 7.43004C8.776 7.20704 8.22099 6.77404 7.95799 6.28904C7.64799 5.71804 7.746 5.06204 7.968 4.47904C8.123 4.07204 8.32901 3.68104 8.54201 3.30204C8.71501 2.99404 8.883 2.68304 9.048 2.37204C9.285 1.92604 9.54499 1.48304 9.74699 1.02004C9.83499 0.818039 9.933 0.321046 10.253 0.424046C10.482 0.498046 10.611 0.871046 10.713 1.06405C10.983 1.57305 11.246 2.08505 11.522 2.59105C11.917 3.31205 12.528 4.10104 12.679 4.94304Z" fill="#534A78"/>
<path d="M21.679 4.94304C21.735 5.25504 21.728 5.57404 21.624 5.90004C21.524 6.21404 21.318 6.62204 21.074 6.85004C20.846 7.06404 20.517 7.32004 20.22 7.42604C19.615 7.64004 18.869 7.69604 18.276 7.43004C17.776 7.20704 17.221 6.77404 16.958 6.28904C16.648 5.71804 16.746 5.06204 16.968 4.47904C17.123 4.07204 17.329 3.68104 17.542 3.30204C17.715 2.99404 17.883 2.68304 18.048 2.37204C18.285 1.92604 18.545 1.48304 18.747 1.02004C18.835 0.818039 18.933 0.321046 19.253 0.424046C19.482 0.498046 19.611 0.871046 19.713 1.06405C19.983 1.57305 20.246 2.08505 20.522 2.59105C20.917 3.31205 21.528 4.10104 21.679 4.94304Z" fill="#534A78"/>
<path d="M30.679 4.94304C30.735 5.25504 30.728 5.57404 30.624 5.90004C30.524 6.21404 30.318 6.62204 30.074 6.85004C29.846 7.06404 29.517 7.32004 29.22 7.42604C28.615 7.64004 27.869 7.69604 27.276 7.43004C26.776 7.20704 26.221 6.77404 25.958 6.28904C25.648 5.71804 25.746 5.06204 25.968 4.47904C26.123 4.07204 26.329 3.68104 26.542 3.30204C26.715 2.99404 26.883 2.68304 27.048 2.37204C27.285 1.92604 27.545 1.48304 27.747 1.02004C27.835 0.818039 27.933 0.321046 28.253 0.424046C28.482 0.498046 28.611 0.871046 28.713 1.06405C28.983 1.57305 29.246 2.08505 29.522 2.59105C29.917 3.31205 30.528 4.10104 30.679 4.94304Z" fill="#534A78"/>
<path d="M8.179 13.943C8.235 14.255 8.22799 14.574 8.12399 14.9C8.02399 15.214 7.818 15.622 7.574 15.85C7.346 16.064 7.017 16.32 6.72 16.426C6.115 16.64 5.369 16.696 4.776 16.43C4.276 16.207 3.72099 15.774 3.45799 15.289C3.14799 14.718 3.246 14.062 3.468 13.479C3.623 13.072 3.82901 12.681 4.04201 12.302C4.21501 11.994 4.383 11.683 4.548 11.372C4.785 10.926 5.04499 10.483 5.24699 10.02C5.33499 9.81804 5.433 9.32105 5.753 9.42405C5.982 9.49805 6.111 9.87105 6.213 10.064C6.483 10.573 6.746 11.085 7.022 11.591C7.417 12.312 8.028 13.101 8.179 13.943Z" fill="#534A78"/>
<path d="M17.179 13.943C17.235 14.255 17.228 14.574 17.124 14.9C17.024 15.214 16.818 15.622 16.574 15.85C16.346 16.064 16.017 16.32 15.72 16.426C15.115 16.64 14.369 16.696 13.776 16.43C13.276 16.207 12.721 15.774 12.458 15.289C12.148 14.718 12.246 14.062 12.468 13.479C12.623 13.072 12.829 12.681 13.042 12.302C13.215 11.994 13.383 11.683 13.548 11.372C13.785 10.926 14.045 10.483 14.247 10.02C14.335 9.81804 14.433 9.32105 14.753 9.42405C14.982 9.49805 15.111 9.87105 15.213 10.064C15.483 10.573 15.746 11.085 16.022 11.591C16.417 12.312 17.028 13.101 17.179 13.943Z" fill="#534A78"/>
<path d="M26.179 13.943C26.235 14.255 26.228 14.574 26.124 14.9C26.024 15.214 25.818 15.622 25.574 15.85C25.346 16.064 25.017 16.32 24.72 16.426C24.115 16.64 23.369 16.696 22.776 16.43C22.276 16.207 21.721 15.774 21.458 15.289C21.148 14.718 21.246 14.062 21.468 13.479C21.623 13.072 21.829 12.681 22.042 12.302C22.215 11.994 22.383 11.683 22.548 11.372C22.785 10.926 23.045 10.483 23.247 10.02C23.335 9.81804 23.433 9.32105 23.753 9.42405C23.982 9.49805 24.111 9.87105 24.213 10.064C24.483 10.573 24.746 11.085 25.022 11.591C25.417 12.312 26.028 13.101 26.179 13.943Z" fill="#534A78"/>
<path d="M35.179 13.943C35.235 14.255 35.228 14.574 35.124 14.9C35.024 15.214 34.818 15.622 34.574 15.85C34.346 16.064 34.017 16.32 33.72 16.426C33.115 16.64 32.369 16.696 31.776 16.43C31.276 16.207 30.721 15.774 30.458 15.289C30.148 14.718 30.246 14.062 30.468 13.479C30.623 13.072 30.829 12.681 31.042 12.302C31.215 11.994 31.383 11.683 31.548 11.372C31.785 10.926 32.045 10.483 32.247 10.02C32.335 9.81804 32.433 9.32105 32.753 9.42405C32.982 9.49805 33.111 9.87105 33.213 10.064C33.483 10.573 33.746 11.085 34.022 11.591C34.417 12.312 35.028 13.101 35.179 13.943Z" fill="#534A78"/>
<path d="M1 35.5171V33.0171C1 26.3901 7.11101 21.5171 13.738 21.5171H24.738C31.365 21.5171 36 26.3901 36 33.0171V35.5171" fill="#FF9FBA"/>
<path d="M36.5 37.0171C35.672 37.0171 35 36.3461 35 35.5171V33.0171C35 27.1291 30.492 22.5171 24.738 22.5171H13.738C7.91701 22.5171 3 27.3261 3 33.0171V35.5171C3 36.3461 2.329 37.0171 1.5 37.0171C0.671 37.0171 0 36.3461 0 35.5171V33.0171C0 25.5731 6.16301 19.5171 13.738 19.5171H24.738C32.175 19.5171 38 25.4471 38 33.0171V35.5171C38 36.3451 37.328 37.0171 36.5 37.0171Z" fill="#534A78"/>
</svg>
