<svg width="20" height="20" viewBox="0 0 20 20" fill="none" xmlns="http://www.w3.org/2000/svg">
<path opacity="0.5" d="M8.68225 0C3.89461 0 0 3.89461 0 8.68225C0 13.4699 3.89461 17.3645 8.68225 17.3645C10.0564 17.3645 11.3691 17.0372 12.5277 16.4569C12.7224 16.3593 12.96 16.4268 13.0978 16.5955L15.5784 19.1506C15.8075 19.4083 16.0868 19.6165 16.3992 19.7624C16.7117 19.9083 17.0506 19.9888 17.3953 19.9989C17.74 20.0091 18.0831 19.9486 18.4035 19.8214C18.724 19.6941 19.0151 19.5027 19.2589 19.2589C19.5027 19.0151 19.6941 18.724 19.8214 18.4035C19.9486 18.0831 20.0091 17.74 19.9989 17.3953C19.9888 17.0506 19.9083 16.7117 19.7624 16.3992C19.6165 16.0868 19.4083 15.8075 19.1506 15.5784L16.5955 13.0978C16.426 12.9594 16.3565 12.722 16.4524 12.5253C17.0172 11.3674 17.3645 10.0555 17.3645 8.68225C17.3645 3.89461 13.4699 0 8.68225 0ZM8.68225 2.46824C8.68225 2.47509 8.68788 2.48064 8.69473 2.48065C12.137 2.48729 14.8839 5.23832 14.8839 8.68225C14.8839 10.1458 14.3877 11.5102 13.5691 12.5521C13.5199 12.6013 13.462 12.6407 13.4 12.6724C13.3968 12.674 13.3936 12.6756 13.3905 12.6773C13.3606 12.6927 13.3324 12.711 13.3061 12.732C13.2414 12.7836 13.1795 12.8383 13.1205 12.8959C12.818 13.1912 12.5665 13.5432 12.2167 13.7806C11.2099 14.4639 9.99097 14.8591 8.68225 14.8591C5.23416 14.8591 2.48064 12.1055 2.48064 8.65744C2.48064 5.21351 5.22752 2.46248 8.66977 2.45585C8.67662 2.45584 8.68225 2.46139 8.68225 2.46824Z" fill="#ADA4D3"/>
</svg>
