<svg width="39" height="41" viewBox="0 0 39 41" fill="none" xmlns="http://www.w3.org/2000/svg">
<path d="M30.017 6.99002C29.547 6.80502 29.123 6.57302 28.796 5.98202C28.545 5.53002 28.693 5.01102 28.637 4.52502C28.575 3.99802 28.383 3.53102 28.088 3.09702C27.485 2.21102 26.494 1.66902 25.413 1.66902C25.008 1.66902 24.624 1.75202 24.267 1.88802C24.035 1.97602 21.399 0.382021 20.375 0.559021C18.775 0.836021 17.45 2.10302 16.876 3.58602C16.994 3.28102 13.045 3.48902 12.619 3.69802C11.514 4.24102 10.924 5.58702 9.87398 6.24202C8.86298 6.87302 7.75899 6.42202 6.98799 7.67002C5.97599 9.30802 6.90597 11.308 8.59297 12.008C9.43297 12.356 10.421 11.924 11.307 12.12C12.483 12.38 13.396 13.328 14.65 13.349C16.185 13.374 17.379 12.183 18.93 12.189C20.145 12.194 21.236 12.874 22.486 12.868C23.036 12.865 23.55 12.132 24.118 12.089C26.005 11.948 26.911 13.145 28.615 11.65C29 11.902 29.458 12.051 29.953 12.051C31.307 12.051 32.404 10.954 32.404 9.60002C32.404 8.74702 31.948 7.94102 31.217 7.50302C30.804 7.25602 30.395 7.13902 30.017 6.99002Z" fill="#AFAFAF"/>
<path d="M2 38.517V36.017C2 29.39 8.11101 24.517 14.738 24.517H25.738C32.365 24.517 37 29.39 37 36.017V38.517" fill="#AFAFAF"/>
<path d="M37.5 40.017C36.672 40.017 36 39.346 36 38.517V36.017C36 30.129 31.492 25.517 25.738 25.517H14.738C8.91701 25.517 4 30.326 4 36.017V38.517C4 39.346 3.329 40.017 2.5 40.017C1.671 40.017 1 39.346 1 38.517V36.017C1 28.573 7.16301 22.517 14.738 22.517H25.738C33.175 22.517 39 28.447 39 36.017V38.517C39 39.345 38.328 40.017 37.5 40.017Z" fill="black"/>
<path d="M32 19.517C31.998 19.517 31.995 19.517 31.993 19.517C26.648 19.481 23.166 18.864 20.918 18.003C16.188 19.247 6.855 12.777 5.755 11.999C5.305 11.68 5.19799 11.056 5.51699 10.605C5.83699 10.154 6.46098 10.047 6.91198 10.367C9.82198 12.427 14.481 15.119 17.78 15.94C17.528 15.623 17.35 15.306 17.228 14.998C16.719 13.718 17.082 12.275 18.172 11.233C19.27 10.185 20.778 9.82803 21.932 10.348C22.621 10.659 23.765 11.555 23.666 14.056C23.622 15.168 23.34 15.974 22.958 16.557C25.024 17.11 27.98 17.49 32.007 17.516C32.559 17.52 33.004 17.971 33 18.523C32.996 19.073 32.549 19.517 32 19.517ZM20.79 12.109C20.407 12.109 19.928 12.321 19.553 12.679C19.315 12.907 18.791 13.517 19.086 14.26C19.299 14.795 19.888 15.345 20.929 15.838C21.21 15.643 21.62 15.18 21.668 13.977C21.705 13.02 21.496 12.345 21.108 12.17C21.016 12.129 20.907 12.109 20.79 12.109Z" fill="black"/>
<path d="M8.34202 19.996C4.61802 19.996 1.43602 18.67 1.27802 18.603C0.770023 18.388 0.532018 17.802 0.747018 17.293C0.962018 16.784 1.54802 16.548 2.05702 16.76C2.09902 16.778 6.19402 18.472 10.182 17.86C10.728 17.781 11.239 18.15 11.323 18.696C11.407 19.242 11.033 19.752 10.487 19.836C9.76301 19.95 9.04302 19.996 8.34202 19.996Z" fill="black"/>
<path d="M34.254 17.12C30.03 17.12 27.642 14.487 26.925 12.935C26.694 12.434 26.912 11.839 27.414 11.608C27.916 11.377 28.507 11.595 28.738 12.092C28.818 12.257 30.547 15.738 35.525 15.026C36.071 14.943 36.579 15.328 36.657 15.874C36.735 16.421 36.355 16.927 35.808 17.005C35.266 17.084 34.747 17.12 34.254 17.12Z" fill="black"/>
</svg>
