<svg width="39" height="41" viewBox="0 0 39 41" fill="none" xmlns="http://www.w3.org/2000/svg">
<path d="M30.017 6.99002C29.547 6.80502 29.123 6.57303 28.796 5.98203C28.545 5.53003 28.693 5.01102 28.637 4.52502C28.575 3.99802 28.383 3.53102 28.088 3.09702C27.485 2.21102 26.494 1.66902 25.413 1.66902C25.008 1.66902 24.624 1.75202 24.267 1.88802C24.035 1.97602 21.399 0.382021 20.375 0.559021C18.775 0.836021 17.45 2.10302 16.876 3.58602C16.994 3.28102 13.045 3.48902 12.619 3.69802C11.514 4.24102 10.924 5.58702 9.87398 6.24202C8.86298 6.87302 7.75899 6.42202 6.98799 7.67002C5.97599 9.30802 6.90597 11.308 8.59297 12.008C9.43297 12.356 10.421 11.924 11.307 12.12C12.483 12.38 13.396 13.328 14.65 13.349C16.185 13.374 17.379 12.183 18.93 12.189C20.145 12.194 21.236 12.874 22.486 12.868C23.036 12.865 23.55 12.132 24.118 12.089C26.005 11.948 26.911 13.145 28.615 11.65C29 11.902 29.458 12.051 29.953 12.051C31.307 12.051 32.404 10.954 32.404 9.60002C32.404 8.74702 31.948 7.94102 31.217 7.50302C30.804 7.25602 30.395 7.13902 30.017 6.99002Z" fill="#FF9FBA"/>
<path d="M2 38.517V36.017C2 29.39 8.11101 24.517 14.738 24.517H25.738C32.365 24.517 37 29.39 37 36.017V38.517" fill="#FF9FBA"/>
<path d="M37.5 40.017C36.672 40.017 36 39.346 36 38.517V36.017C36 30.129 31.492 25.517 25.738 25.517H14.738C8.91701 25.517 4 30.326 4 36.017V38.517C4 39.346 3.329 40.017 2.5 40.017C1.671 40.017 1 39.346 1 38.517V36.017C1 28.573 7.16301 22.517 14.738 22.517H25.738C33.175 22.517 39 28.447 39 36.017V38.517C39 39.345 38.328 40.017 37.5 40.017Z" fill="#534A78"/>
<path d="M32 19.5171C31.998 19.5171 31.995 19.5171 31.993 19.5171C26.648 19.4811 23.166 18.8641 20.918 18.0031C16.188 19.2461 6.855 12.7771 5.755 11.9991C5.305 11.6801 5.19799 11.0561 5.51699 10.6051C5.83699 10.1531 6.46098 10.0481 6.91198 10.3671C9.82198 12.4271 14.481 15.1191 17.78 15.9401C17.528 15.6231 17.35 15.3061 17.228 14.9981C16.719 13.7181 17.082 12.2751 18.172 11.2331C19.27 10.1851 20.778 9.82907 21.932 10.3481C22.621 10.6591 23.765 11.5551 23.666 14.0561C23.622 15.1681 23.34 15.9741 22.958 16.5571C25.024 17.1101 27.98 17.4901 32.007 17.5161C32.559 17.5201 33.004 17.9711 33 18.5231C32.996 19.0731 32.549 19.5171 32 19.5171ZM20.79 12.1091C20.407 12.1091 19.928 12.3211 19.553 12.6791C19.315 12.9071 18.791 13.5171 19.086 14.2601C19.299 14.7951 19.888 15.3451 20.929 15.8381C21.21 15.6431 21.62 15.1801 21.668 13.9771C21.705 13.0201 21.496 12.3451 21.108 12.1701C21.016 12.1291 20.907 12.1091 20.79 12.1091Z" fill="#534A78"/>
<path d="M8.34202 19.996C4.61802 19.996 1.43602 18.67 1.27802 18.603C0.770023 18.388 0.532018 17.802 0.747018 17.293C0.962018 16.784 1.54802 16.548 2.05702 16.76C2.09902 16.778 6.19402 18.472 10.182 17.86C10.728 17.781 11.239 18.15 11.323 18.696C11.407 19.242 11.033 19.752 10.487 19.836C9.76301 19.95 9.04302 19.996 8.34202 19.996Z" fill="#534A78"/>
<path d="M34.254 17.12C30.03 17.12 27.642 14.487 26.925 12.935C26.694 12.434 26.912 11.839 27.414 11.608C27.916 11.377 28.507 11.595 28.738 12.092C28.818 12.256 30.547 15.735 35.525 15.026C36.071 14.945 36.579 15.328 36.657 15.874C36.735 16.421 36.355 16.927 35.808 17.005C35.266 17.084 34.747 17.12 34.254 17.12Z" fill="#534A78"/>
</svg>
